<svg xmlns="http://www.w3.org/2000/svg" xmlns:xlink="http://www.w3.org/1999/xlink" width="200" zoomAndPan="magnify" viewBox="0 0 150 74.999997" height="100" preserveAspectRatio="xMidYMid meet" version="1.0"><defs><g/></defs><path fill="#eea904" d="M 29.6875 52.902344 C 29.667969 52.78125 29.648438 52.660156 29.628906 52.542969 C 29.625 52.515625 29.617188 52.488281 29.617188 52.460938 C 29.609375 52.394531 29.605469 52.328125 29.578125 52.257812 C 29.527344 52.113281 29.515625 51.949219 29.453125 51.808594 C 29.410156 51.710938 29.394531 51.605469 29.335938 51.511719 C 29.296875 51.445312 29.269531 51.367188 29.234375 51.292969 C 29.175781 51.171875 29.117188 51.046875 29.042969 50.933594 C 28.988281 50.855469 28.945312 50.765625 28.886719 50.6875 C 28.796875 50.558594 28.707031 50.429688 28.609375 50.304688 C 28.328125 49.9375 27.996094 49.613281 27.644531 49.3125 C 27.480469 49.175781 27.308594 49.050781 27.140625 48.921875 C 27.019531 48.832031 26.894531 48.742188 26.769531 48.660156 C 26.648438 48.582031 26.523438 48.507812 26.398438 48.433594 C 26.273438 48.359375 26.148438 48.289062 26.019531 48.21875 C 25.902344 48.160156 25.78125 48.105469 25.660156 48.046875 C 25.578125 48.003906 25.496094 47.957031 25.410156 47.917969 C 25.339844 47.882812 25.265625 47.859375 25.195312 47.832031 C 25.171875 47.824219 25.152344 47.8125 25.128906 47.800781 C 25.050781 47.765625 24.972656 47.707031 24.890625 47.699219 C 24.785156 47.691406 24.71875 47.613281 24.621094 47.597656 C 24.523438 47.582031 24.433594 47.535156 24.339844 47.503906 C 24.257812 47.476562 24.175781 47.449219 24.082031 47.414062 C 24.054688 47.398438 24.039062 47.386719 24.023438 47.378906 C 24.019531 47.382812 24.015625 47.390625 24.011719 47.394531 C 24.027344 47.40625 24.042969 47.421875 24.058594 47.4375 C 24.171875 47.496094 24.289062 47.550781 24.398438 47.617188 C 24.585938 47.726562 24.765625 47.839844 24.949219 47.957031 C 25.21875 48.132812 25.476562 48.316406 25.714844 48.53125 C 25.871094 48.667969 26.027344 48.800781 26.171875 48.945312 C 26.359375 49.144531 26.550781 49.339844 26.703125 49.570312 C 26.78125 49.691406 26.875 49.804688 26.957031 49.925781 C 27.023438 50.03125 27.089844 50.136719 27.144531 50.25 C 27.210938 50.375 27.269531 50.507812 27.324219 50.640625 C 27.34375 50.683594 27.355469 50.734375 27.371094 50.78125 C 27.371094 50.792969 27.378906 50.804688 27.386719 50.816406 C 27.40625 50.859375 27.441406 50.902344 27.441406 50.945312 C 27.441406 51.03125 27.496094 51.101562 27.511719 51.183594 C 27.539062 51.351562 27.589844 51.515625 27.597656 51.679688 C 27.605469 51.828125 27.625 51.972656 27.628906 52.121094 C 27.628906 52.199219 27.621094 52.277344 27.609375 52.355469 C 27.589844 52.496094 27.605469 52.640625 27.574219 52.78125 C 27.570312 52.789062 27.574219 52.796875 27.574219 52.804688 C 27.523438 52.9375 27.53125 53.089844 27.460938 53.21875 C 27.4375 53.261719 27.445312 53.320312 27.425781 53.367188 C 27.382812 53.492188 27.335938 53.621094 27.28125 53.746094 C 27.222656 53.867188 27.15625 53.988281 27.09375 54.109375 C 27.042969 54.199219 26.992188 54.285156 26.9375 54.371094 C 26.851562 54.5 26.769531 54.628906 26.675781 54.753906 C 26.488281 54.996094 26.285156 55.230469 26.054688 55.441406 C 25.882812 55.597656 25.71875 55.765625 25.523438 55.894531 C 25.441406 55.945312 25.371094 56.019531 25.292969 56.078125 C 25.125 56.195312 24.957031 56.308594 24.785156 56.421875 C 24.777344 56.429688 24.761719 56.433594 24.730469 56.445312 C 24.742188 56.394531 24.742188 56.351562 24.757812 56.320312 C 24.785156 56.265625 24.800781 56.210938 24.828125 56.15625 C 24.867188 56.082031 24.878906 55.996094 24.917969 55.921875 C 24.949219 55.859375 24.960938 55.789062 24.984375 55.722656 C 24.992188 55.699219 25.003906 55.675781 25.015625 55.648438 C 25.023438 55.628906 25.035156 55.609375 25.039062 55.589844 C 25.050781 55.546875 25.046875 55.5 25.066406 55.460938 C 25.121094 55.359375 25.105469 55.242188 25.144531 55.140625 C 25.203125 54.996094 25.191406 54.84375 25.226562 54.695312 C 25.28125 54.453125 25.28125 54.207031 25.296875 53.949219 C 25.300781 53.910156 25.300781 53.886719 25.296875 53.863281 C 25.296875 53.757812 25.296875 53.65625 25.300781 53.542969 C 25.296875 53.519531 25.292969 53.507812 25.285156 53.5 C 25.214844 53.648438 25.113281 53.785156 25.003906 53.914062 C 24.898438 54.035156 24.792969 54.160156 24.675781 54.273438 C 24.542969 54.40625 24.410156 54.539062 24.261719 54.65625 C 24.140625 54.753906 24.011719 54.839844 23.886719 54.929688 C 23.761719 55.019531 23.640625 55.109375 23.511719 55.191406 C 23.40625 55.257812 23.296875 55.316406 23.1875 55.378906 C 23.074219 55.441406 22.964844 55.507812 22.851562 55.566406 C 22.71875 55.632812 22.585938 55.695312 22.449219 55.757812 C 22.304688 55.824219 22.15625 55.886719 22.011719 55.949219 C 21.933594 55.980469 21.851562 56.007812 21.773438 56.039062 C 21.675781 56.074219 21.578125 56.113281 21.480469 56.148438 C 21.347656 56.191406 21.214844 56.230469 21.082031 56.273438 C 20.980469 56.304688 20.878906 56.34375 20.777344 56.375 C 20.742188 56.386719 20.710938 56.398438 20.679688 56.402344 C 20.550781 56.414062 20.445312 56.496094 20.3125 56.488281 C 20.269531 56.484375 20.21875 56.519531 20.175781 56.539062 C 20.152344 56.546875 20.128906 56.558594 20.105469 56.558594 C 20.0625 56.5625 20.015625 56.5625 19.972656 56.5625 C 19.992188 56.476562 20.011719 56.398438 20.03125 56.320312 C 20.074219 56.175781 20.121094 56.035156 20.15625 55.890625 C 20.179688 55.789062 20.1875 55.679688 20.203125 55.570312 C 20.210938 55.519531 20.222656 55.464844 20.234375 55.414062 C 20.238281 55.386719 20.242188 55.359375 20.242188 55.332031 C 20.25 55.195312 20.257812 55.058594 20.257812 54.917969 C 20.257812 54.800781 20.253906 54.683594 20.242188 54.566406 C 20.230469 54.46875 20.207031 54.375 20.1875 54.277344 C 20.179688 54.207031 20.175781 54.136719 20.160156 54.066406 C 20.144531 53.996094 20.117188 53.933594 20.105469 53.863281 C 20.089844 53.761719 20.042969 53.671875 20.027344 53.574219 C 20.007812 53.464844 19.945312 53.371094 19.914062 53.265625 C 19.863281 53.097656 19.769531 52.949219 19.707031 52.789062 C 19.683594 52.71875 19.636719 52.660156 19.597656 52.597656 C 19.542969 52.507812 19.488281 52.417969 19.4375 52.328125 C 19.347656 52.1875 19.257812 52.046875 19.152344 51.914062 C 19.011719 51.738281 18.875 51.558594 18.730469 51.386719 C 18.632812 51.273438 18.523438 51.171875 18.417969 51.070312 C 18.253906 50.90625 18.089844 50.746094 17.917969 50.589844 C 17.765625 50.453125 17.605469 50.328125 17.453125 50.199219 C 17.292969 50.066406 17.128906 49.941406 16.972656 49.804688 C 16.734375 49.589844 16.5 49.367188 16.265625 49.144531 C 16.199219 49.085938 16.140625 49.019531 16.082031 48.953125 C 15.855469 48.703125 15.621094 48.457031 15.402344 48.199219 C 15.210938 47.976562 15.035156 47.742188 14.859375 47.507812 C 14.757812 47.371094 14.660156 47.230469 14.566406 47.089844 C 14.433594 46.886719 14.304688 46.679688 14.175781 46.46875 C 14.105469 46.355469 14.039062 46.234375 13.976562 46.113281 C 13.914062 45.992188 13.855469 45.867188 13.792969 45.742188 C 13.734375 45.628906 13.675781 45.515625 13.621094 45.398438 C 13.574219 45.300781 13.535156 45.199219 13.492188 45.101562 C 13.453125 45.015625 13.414062 44.929688 13.378906 44.84375 C 13.335938 44.75 13.300781 44.652344 13.261719 44.554688 C 13.222656 44.449219 13.183594 44.34375 13.148438 44.238281 C 13.109375 44.113281 13.078125 43.988281 13.039062 43.863281 C 13.027344 43.828125 13.007812 43.796875 13 43.765625 C 12.960938 43.644531 12.917969 43.527344 12.902344 43.402344 C 12.886719 43.304688 12.839844 43.222656 12.832031 43.128906 C 12.820312 43.027344 12.792969 42.925781 12.773438 42.828125 C 12.753906 42.734375 12.75 42.640625 12.742188 42.542969 C 12.738281 42.511719 12.75 42.472656 12.6875 42.480469 C 12.679688 42.554688 12.679688 42.632812 12.65625 42.707031 C 12.609375 42.847656 12.597656 42.996094 12.574219 43.144531 C 12.570312 43.167969 12.566406 43.191406 12.558594 43.214844 C 12.535156 43.28125 12.527344 43.34375 12.527344 43.414062 C 12.527344 43.523438 12.484375 43.632812 12.464844 43.742188 C 12.457031 43.765625 12.453125 43.789062 12.453125 43.8125 C 12.460938 43.96875 12.4375 44.121094 12.402344 44.273438 C 12.382812 44.371094 12.378906 44.464844 12.375 44.5625 C 12.363281 44.738281 12.347656 44.914062 12.339844 45.089844 C 12.328125 45.273438 12.316406 45.460938 12.304688 45.660156 C 12.296875 45.6875 12.296875 45.699219 12.292969 45.710938 C 12.300781 45.769531 12.308594 45.824219 12.3125 45.882812 C 12.316406 45.894531 12.320312 45.910156 12.316406 45.921875 C 12.273438 46.015625 12.289062 46.113281 12.296875 46.203125 C 12.3125 46.316406 12.289062 46.429688 12.296875 46.558594 C 12.300781 46.582031 12.304688 46.597656 12.304688 46.609375 C 12.320312 46.835938 12.339844 47.066406 12.351562 47.296875 C 12.359375 47.441406 12.359375 47.589844 12.371094 47.738281 C 12.386719 47.90625 12.417969 48.078125 12.441406 48.246094 C 12.445312 48.285156 12.449219 48.328125 12.453125 48.367188 C 12.453125 48.441406 12.457031 48.519531 12.480469 48.59375 C 12.507812 48.675781 12.511719 48.765625 12.523438 48.867188 C 12.527344 48.886719 12.53125 48.890625 12.535156 48.898438 C 12.535156 48.90625 12.53125 48.914062 12.527344 48.929688 C 12.523438 48.941406 12.523438 48.945312 12.523438 48.945312 C 12.523438 48.949219 12.527344 48.957031 12.527344 48.960938 C 12.53125 48.980469 12.535156 49.003906 12.535156 49.039062 C 12.539062 49.058594 12.542969 49.0625 12.550781 49.0625 C 12.570312 49.179688 12.589844 49.292969 12.605469 49.410156 C 12.609375 49.421875 12.609375 49.4375 12.613281 49.449219 C 12.632812 49.527344 12.664062 49.605469 12.667969 49.6875 C 12.679688 49.835938 12.761719 49.976562 12.753906 50.132812 C 12.75 50.164062 12.777344 50.199219 12.785156 50.234375 C 12.828125 50.410156 12.855469 50.589844 12.917969 50.761719 C 12.960938 50.882812 12.964844 51.019531 13.03125 51.132812 C 13.039062 51.152344 13.042969 51.175781 13.042969 51.195312 C 13.035156 51.265625 13.070312 51.324219 13.097656 51.382812 C 13.105469 51.398438 13.117188 51.414062 13.117188 51.429688 C 13.117188 51.519531 13.164062 51.589844 13.1875 51.671875 C 13.21875 51.777344 13.25 51.886719 13.285156 51.996094 C 13.316406 52.082031 13.351562 52.167969 13.382812 52.257812 C 13.386719 52.277344 13.382812 52.300781 13.382812 52.335938 C 13.179688 52.199219 12.996094 52.070312 12.824219 51.921875 C 12.664062 51.785156 12.5 51.65625 12.34375 51.515625 C 12.195312 51.375 12.050781 51.222656 11.910156 51.074219 C 11.800781 50.960938 11.695312 50.84375 11.59375 50.726562 C 11.472656 50.578125 11.351562 50.433594 11.238281 50.277344 C 11.132812 50.136719 11.039062 49.984375 10.941406 49.832031 C 10.855469 49.699219 10.765625 49.566406 10.683594 49.425781 C 10.613281 49.304688 10.554688 49.175781 10.492188 49.050781 C 10.460938 48.992188 10.425781 48.933594 10.394531 48.875 C 10.347656 48.78125 10.300781 48.683594 10.269531 48.582031 C 10.25 48.511719 10.214844 48.453125 10.183594 48.386719 C 10.140625 48.28125 10.089844 48.171875 10.050781 48.0625 C 10.015625 47.96875 10.007812 47.863281 9.964844 47.777344 C 9.910156 47.660156 9.902344 47.535156 9.851562 47.421875 C 9.839844 47.390625 9.824219 47.363281 9.824219 47.332031 C 9.828125 47.230469 9.777344 47.140625 9.757812 47.046875 C 9.75 47.015625 9.738281 46.984375 9.742188 46.957031 C 9.746094 46.894531 9.726562 46.84375 9.691406 46.796875 C 9.675781 46.894531 9.671875 46.996094 9.640625 47.089844 C 9.585938 47.273438 9.597656 47.464844 9.574219 47.648438 C 9.550781 47.828125 9.503906 48.003906 9.519531 48.183594 C 9.53125 48.3125 9.535156 48.441406 9.535156 48.570312 C 9.535156 48.660156 9.519531 48.753906 9.523438 48.84375 C 9.523438 48.925781 9.542969 49.007812 9.554688 49.09375 C 9.5625 49.183594 9.570312 49.273438 9.578125 49.367188 C 9.585938 49.480469 9.589844 49.597656 9.605469 49.710938 C 9.613281 49.785156 9.636719 49.859375 9.652344 49.9375 C 9.683594 50.113281 9.714844 50.292969 9.75 50.472656 C 9.753906 50.5 9.777344 50.527344 9.78125 50.554688 C 9.800781 50.628906 9.808594 50.703125 9.828125 50.773438 C 9.835938 50.804688 9.855469 50.832031 9.867188 50.863281 C 9.90625 51 9.9375 51.136719 9.980469 51.269531 C 10.011719 51.363281 10.058594 51.453125 10.09375 51.546875 C 10.128906 51.636719 10.15625 51.726562 10.199219 51.808594 C 10.242188 51.886719 10.265625 51.976562 10.304688 52.058594 C 10.34375 52.148438 10.382812 52.242188 10.425781 52.332031 C 10.453125 52.382812 10.480469 52.433594 10.507812 52.484375 C 10.582031 52.625 10.652344 52.769531 10.738281 52.90625 C 10.84375 53.078125 10.960938 53.246094 11.078125 53.414062 C 11.171875 53.550781 11.269531 53.691406 11.382812 53.847656 C 11.339844 53.832031 11.308594 53.828125 11.289062 53.8125 C 11.09375 53.648438 10.902344 53.484375 10.707031 53.316406 C 10.605469 53.230469 10.503906 53.144531 10.402344 53.050781 C 10.199219 52.855469 9.992188 52.660156 9.796875 52.457031 C 9.554688 52.207031 9.3125 51.949219 9.082031 51.6875 C 8.941406 51.53125 8.816406 51.359375 8.683594 51.191406 C 8.605469 51.09375 8.523438 51 8.449219 50.898438 C 8.277344 50.664062 8.105469 50.429688 7.941406 50.1875 C 7.796875 49.976562 7.660156 49.761719 7.523438 49.546875 C 7.414062 49.375 7.316406 49.199219 7.214844 49.027344 C 7.136719 48.890625 7.058594 48.757812 6.988281 48.617188 C 6.925781 48.496094 6.871094 48.367188 6.808594 48.242188 C 6.773438 48.171875 6.734375 48.105469 6.703125 48.035156 C 6.675781 47.984375 6.648438 47.925781 6.625 47.871094 C 6.585938 47.785156 6.550781 47.695312 6.511719 47.605469 C 6.488281 47.542969 6.464844 47.480469 6.4375 47.421875 C 6.398438 47.335938 6.34375 47.253906 6.320312 47.164062 C 6.296875 47.0625 6.21875 46.984375 6.21875 46.871094 C 6.21875 46.847656 6.1875 46.824219 6.175781 46.796875 C 6.136719 46.683594 6.101562 46.570312 6.0625 46.457031 C 6.027344 46.359375 5.988281 46.261719 5.957031 46.164062 C 5.914062 46.039062 5.878906 45.910156 5.839844 45.78125 C 5.820312 45.726562 5.796875 45.671875 5.785156 45.617188 C 5.75 45.488281 5.722656 45.359375 5.6875 45.226562 C 5.675781 45.179688 5.65625 45.132812 5.636719 45.085938 C 5.632812 45.074219 5.625 45.058594 5.625 45.046875 C 5.636719 44.953125 5.578125 44.875 5.5625 44.785156 C 5.554688 44.738281 5.550781 44.6875 5.539062 44.636719 C 5.523438 44.566406 5.496094 44.496094 5.488281 44.421875 C 5.460938 44.230469 5.386719 44.042969 5.390625 43.847656 C 5.390625 43.789062 5.359375 43.734375 5.351562 43.679688 C 5.339844 43.601562 5.335938 43.523438 5.324219 43.449219 C 5.304688 43.320312 5.277344 43.191406 5.261719 43.0625 C 5.25 42.964844 5.253906 42.867188 5.246094 42.773438 C 5.242188 42.726562 5.226562 42.679688 5.222656 42.636719 C 5.210938 42.558594 5.199219 42.480469 5.191406 42.402344 C 5.183594 42.277344 5.171875 42.148438 5.167969 42.019531 C 5.164062 41.976562 5.183594 41.929688 5.175781 41.890625 C 5.144531 41.742188 5.171875 41.597656 5.167969 41.453125 C 5.160156 41.296875 5.164062 41.144531 5.164062 40.992188 C 5.167969 40.84375 5.175781 40.691406 5.167969 40.542969 C 5.160156 40.40625 5.167969 40.273438 5.175781 40.136719 C 5.179688 39.976562 5.179688 39.808594 5.21875 39.652344 C 5.246094 39.523438 5.234375 39.398438 5.25 39.273438 C 5.265625 39.160156 5.292969 39.042969 5.308594 38.925781 C 5.324219 38.84375 5.324219 38.761719 5.332031 38.675781 C 5.332031 38.648438 5.335938 38.613281 5.34375 38.585938 C 5.386719 38.449219 5.386719 38.308594 5.414062 38.171875 C 5.449219 38 5.492188 37.832031 5.53125 37.660156 C 5.550781 37.582031 5.550781 37.496094 5.578125 37.421875 C 5.625 37.289062 5.628906 37.148438 5.683594 37.015625 C 5.734375 36.902344 5.734375 36.765625 5.777344 36.648438 C 5.824219 36.511719 5.835938 36.367188 5.914062 36.242188 C 5.9375 36.199219 5.929688 36.140625 5.949219 36.097656 C 5.996094 35.976562 6.023438 35.847656 6.070312 35.726562 C 6.113281 35.613281 6.171875 35.507812 6.207031 35.390625 C 6.230469 35.316406 6.257812 35.242188 6.292969 35.167969 C 6.339844 35.058594 6.382812 34.945312 6.429688 34.835938 C 6.457031 34.761719 6.484375 34.691406 6.511719 34.621094 C 6.519531 34.605469 6.523438 34.585938 6.53125 34.574219 C 6.589844 34.460938 6.640625 34.34375 6.691406 34.226562 C 6.742188 34.097656 6.820312 33.980469 6.886719 33.859375 C 6.921875 33.785156 6.945312 33.710938 6.980469 33.640625 C 7.03125 33.539062 7.089844 33.441406 7.144531 33.339844 C 7.183594 33.265625 7.21875 33.191406 7.261719 33.117188 C 7.296875 33.054688 7.339844 32.992188 7.378906 32.929688 C 7.445312 32.820312 7.507812 32.707031 7.578125 32.597656 C 7.65625 32.472656 7.738281 32.351562 7.820312 32.226562 C 7.894531 32.117188 7.964844 32.003906 8.042969 31.894531 C 8.128906 31.773438 8.21875 31.65625 8.308594 31.535156 C 8.429688 31.371094 8.550781 31.203125 8.675781 31.042969 C 8.980469 30.660156 9.304688 30.292969 9.640625 29.9375 C 9.824219 29.742188 10.019531 29.554688 10.222656 29.359375 C 10.257812 29.328125 10.285156 29.300781 10.3125 29.277344 C 10.308594 29.273438 10.304688 29.269531 10.300781 29.261719 C 10.265625 29.285156 10.230469 29.308594 10.195312 29.328125 C 10.054688 29.417969 9.917969 29.511719 9.777344 29.597656 C 9.566406 29.722656 9.371094 29.867188 9.167969 30.003906 C 8.964844 30.140625 8.773438 30.292969 8.582031 30.445312 C 8.417969 30.574219 8.257812 30.714844 8.101562 30.851562 C 7.894531 31.03125 7.683594 31.210938 7.484375 31.398438 C 7.214844 31.660156 6.953125 31.929688 6.691406 32.195312 C 6.46875 32.425781 6.269531 32.671875 6.0625 32.914062 C 5.914062 33.089844 5.777344 33.273438 5.636719 33.453125 C 5.535156 33.582031 5.433594 33.707031 5.34375 33.839844 C 5.210938 34.023438 5.082031 34.207031 4.964844 34.398438 C 4.832031 34.605469 4.710938 34.816406 4.585938 35.023438 C 4.484375 35.191406 4.386719 35.359375 4.292969 35.53125 C 4.210938 35.671875 4.132812 35.816406 4.0625 35.964844 C 4 36.09375 3.949219 36.226562 3.886719 36.359375 C 3.824219 36.492188 3.75 36.625 3.6875 36.757812 C 3.652344 36.839844 3.625 36.929688 3.59375 37.011719 C 3.578125 37.046875 3.550781 37.082031 3.539062 37.121094 C 3.496094 37.25 3.453125 37.378906 3.386719 37.5 C 3.34375 37.578125 3.332031 37.671875 3.304688 37.753906 C 3.265625 37.867188 3.226562 37.976562 3.191406 38.089844 C 3.179688 38.121094 3.175781 38.152344 3.160156 38.183594 C 3.148438 38.21875 3.128906 38.253906 3.097656 38.308594 C 3.085938 38.269531 3.074219 38.253906 3.074219 38.242188 C 3.074219 38.035156 3.074219 37.832031 3.074219 37.628906 C 3.074219 37.339844 3.074219 37.050781 3.074219 36.757812 C 3.074219 36.554688 3.074219 36.351562 3.082031 36.148438 C 3.089844 36.007812 3.117188 35.867188 3.132812 35.726562 C 3.140625 35.667969 3.128906 35.609375 3.140625 35.554688 C 3.167969 35.386719 3.167969 35.214844 3.210938 35.042969 C 3.234375 34.945312 3.226562 34.832031 3.246094 34.726562 C 3.277344 34.558594 3.285156 34.382812 3.335938 34.21875 C 3.371094 34.113281 3.363281 34.007812 3.398438 33.90625 C 3.445312 33.765625 3.492188 33.621094 3.507812 33.476562 C 3.53125 33.316406 3.585938 33.171875 3.628906 33.019531 C 3.648438 32.941406 3.660156 32.855469 3.6875 32.78125 C 3.71875 32.707031 3.738281 32.628906 3.761719 32.550781 C 3.792969 32.441406 3.839844 32.339844 3.878906 32.230469 C 3.914062 32.128906 3.941406 32.027344 3.976562 31.929688 C 4.011719 31.828125 4.058594 31.730469 4.097656 31.632812 C 4.128906 31.546875 4.15625 31.460938 4.191406 31.378906 C 4.238281 31.277344 4.289062 31.179688 4.335938 31.078125 C 4.363281 31.023438 4.390625 30.964844 4.414062 30.90625 C 4.476562 30.75 4.542969 30.597656 4.636719 30.457031 C 4.667969 30.410156 4.679688 30.351562 4.707031 30.300781 C 4.78125 30.164062 4.859375 30.027344 4.933594 29.890625 C 5.015625 29.742188 5.097656 29.59375 5.183594 29.445312 C 5.246094 29.347656 5.3125 29.253906 5.378906 29.15625 C 5.457031 29.03125 5.535156 28.902344 5.617188 28.78125 C 5.746094 28.597656 5.875 28.414062 6.007812 28.234375 C 6.09375 28.121094 6.191406 28.015625 6.28125 27.902344 C 6.34375 27.824219 6.398438 27.742188 6.460938 27.667969 C 6.652344 27.453125 6.84375 27.242188 7.035156 27.03125 C 7.160156 26.894531 7.285156 26.761719 7.414062 26.628906 C 7.476562 26.5625 7.546875 26.5 7.613281 26.4375 C 7.648438 26.40625 7.679688 26.371094 7.710938 26.339844 C 7.910156 26.152344 8.101562 25.960938 8.308594 25.785156 C 8.550781 25.578125 8.804688 25.378906 9.054688 25.179688 C 9.269531 25.011719 9.492188 24.851562 9.714844 24.691406 C 9.917969 24.550781 10.125 24.417969 10.332031 24.28125 C 10.464844 24.191406 10.597656 24.101562 10.734375 24.015625 C 10.835938 23.953125 10.945312 23.902344 11.050781 23.839844 C 11.152344 23.78125 11.25 23.714844 11.355469 23.65625 C 11.421875 23.617188 11.496094 23.585938 11.570312 23.550781 C 11.621094 23.519531 11.675781 23.496094 11.726562 23.464844 C 11.863281 23.378906 12.011719 23.324219 12.148438 23.246094 C 12.320312 23.148438 12.5 23.070312 12.675781 22.984375 C 12.855469 22.898438 13.046875 22.824219 13.242188 22.738281 C 13.292969 22.726562 13.339844 22.734375 13.355469 22.667969 C 13.308594 22.683594 13.277344 22.691406 13.242188 22.703125 C 12.96875 22.710938 12.699219 22.726562 12.429688 22.730469 C 12.304688 22.734375 12.183594 22.75 12.0625 22.742188 C 11.949219 22.738281 11.839844 22.769531 11.726562 22.78125 C 11.59375 22.796875 11.460938 22.796875 11.328125 22.816406 C 11.203125 22.832031 11.078125 22.859375 10.953125 22.882812 C 10.933594 22.886719 10.914062 22.902344 10.894531 22.898438 C 10.757812 22.882812 10.625 22.929688 10.492188 22.953125 C 10.457031 22.960938 10.421875 22.976562 10.378906 22.933594 C 10.429688 22.894531 10.476562 22.855469 10.53125 22.824219 C 10.621094 22.765625 10.71875 22.714844 10.808594 22.660156 C 10.855469 22.632812 10.902344 22.601562 10.945312 22.574219 C 11.046875 22.511719 11.144531 22.449219 11.246094 22.390625 C 11.425781 22.289062 11.609375 22.183594 11.792969 22.085938 C 11.980469 21.988281 12.175781 21.890625 12.371094 21.796875 C 12.59375 21.691406 12.816406 21.585938 13.042969 21.488281 C 13.25 21.402344 13.460938 21.324219 13.671875 21.242188 C 13.835938 21.175781 13.996094 21.109375 14.160156 21.050781 C 14.265625 21.011719 14.375 20.988281 14.480469 20.953125 C 14.582031 20.921875 14.683594 20.878906 14.78125 20.84375 C 14.824219 20.828125 14.867188 20.808594 14.910156 20.804688 C 14.941406 20.804688 14.964844 20.792969 14.992188 20.78125 C 15.050781 20.761719 15.109375 20.75 15.167969 20.734375 C 15.207031 20.722656 15.242188 20.707031 15.28125 20.695312 C 15.410156 20.660156 15.535156 20.625 15.664062 20.589844 C 15.769531 20.5625 15.875 20.523438 15.980469 20.515625 C 16.121094 20.507812 16.242188 20.421875 16.390625 20.4375 C 16.453125 20.441406 16.523438 20.398438 16.59375 20.378906 C 16.609375 20.375 16.625 20.363281 16.640625 20.367188 C 16.742188 20.378906 16.835938 20.328125 16.933594 20.316406 C 17.121094 20.289062 17.308594 20.25 17.496094 20.222656 C 17.714844 20.191406 17.933594 20.167969 18.15625 20.144531 C 18.359375 20.121094 18.5625 20.097656 18.765625 20.082031 C 18.898438 20.074219 19.035156 20.066406 19.171875 20.074219 C 19.289062 20.082031 19.40625 20.085938 19.519531 20.042969 C 19.535156 20.039062 19.550781 20.039062 19.570312 20.039062 C 19.84375 20.039062 20.117188 20.03125 20.394531 20.035156 C 20.535156 20.039062 20.675781 20.039062 20.816406 20.074219 C 20.855469 20.082031 20.898438 20.074219 20.941406 20.074219 C 21.039062 20.078125 21.136719 20.074219 21.25 20.074219 C 21.269531 20.074219 21.273438 20.074219 21.277344 20.074219 C 21.453125 20.089844 21.628906 20.085938 21.800781 20.121094 C 21.941406 20.148438 22.082031 20.136719 22.222656 20.15625 C 22.265625 20.164062 22.304688 20.167969 22.34375 20.175781 C 22.515625 20.210938 22.6875 20.21875 22.859375 20.242188 C 23.027344 20.265625 23.199219 20.285156 23.363281 20.332031 C 23.484375 20.367188 23.617188 20.351562 23.734375 20.402344 C 23.871094 20.457031 24.023438 20.449219 24.167969 20.5 C 24.324219 20.558594 24.503906 20.5625 24.660156 20.617188 C 24.789062 20.660156 24.925781 20.660156 25.042969 20.726562 C 25.101562 20.757812 25.175781 20.753906 25.242188 20.773438 C 25.394531 20.816406 25.546875 20.863281 25.699219 20.914062 C 25.898438 20.980469 26.09375 21.046875 26.292969 21.113281 C 26.429688 21.164062 26.5625 21.214844 26.699219 21.269531 C 26.738281 21.28125 26.773438 21.304688 26.816406 21.316406 C 26.695312 21.144531 26.546875 20.992188 26.390625 20.847656 C 26.234375 20.703125 26.078125 20.558594 25.914062 20.421875 C 25.75 20.28125 25.578125 20.152344 25.410156 20.019531 C 25.414062 20.011719 25.417969 20.003906 25.417969 19.996094 C 25.480469 19.996094 25.539062 19.992188 25.597656 19.996094 C 25.71875 20.011719 25.84375 20.007812 25.957031 20.066406 C 25.972656 20.074219 25.996094 20.070312 26.015625 20.074219 C 26.070312 20.078125 26.125 20.070312 26.179688 20.082031 C 26.300781 20.113281 26.421875 20.136719 26.546875 20.164062 C 26.667969 20.1875 26.789062 20.214844 26.910156 20.25 C 27.027344 20.277344 27.136719 20.320312 27.25 20.355469 C 27.308594 20.375 27.371094 20.378906 27.425781 20.40625 C 27.480469 20.429688 27.535156 20.4375 27.589844 20.453125 C 27.644531 20.472656 27.703125 20.496094 27.757812 20.515625 C 27.855469 20.550781 27.949219 20.585938 28.042969 20.625 C 28.140625 20.664062 28.238281 20.699219 28.332031 20.742188 C 28.414062 20.78125 28.496094 20.824219 28.578125 20.863281 C 28.644531 20.894531 28.710938 20.921875 28.777344 20.953125 C 28.796875 20.960938 28.816406 20.96875 28.832031 20.984375 C 28.886719 21.042969 28.96875 21.054688 29.035156 21.097656 C 29.152344 21.175781 29.28125 21.234375 29.40625 21.308594 C 29.527344 21.382812 29.648438 21.457031 29.769531 21.535156 C 29.863281 21.597656 29.957031 21.660156 30.046875 21.722656 C 30.132812 21.785156 30.21875 21.847656 30.296875 21.914062 C 30.46875 22.054688 30.636719 22.195312 30.804688 22.335938 C 30.898438 22.417969 30.996094 22.5 31.082031 22.597656 C 31.242188 22.78125 31.4375 22.945312 31.578125 23.152344 C 31.648438 23.261719 31.75 23.351562 31.824219 23.457031 C 31.972656 23.660156 32.128906 23.859375 32.246094 24.082031 C 32.300781 24.191406 32.375 24.292969 32.4375 24.402344 C 32.476562 24.472656 32.503906 24.554688 32.542969 24.628906 C 32.570312 24.691406 32.605469 24.753906 32.636719 24.816406 C 32.691406 24.925781 32.75 25.03125 32.777344 25.15625 C 32.800781 25.246094 32.855469 25.328125 32.886719 25.414062 C 32.90625 25.464844 32.902344 25.523438 32.921875 25.574219 C 32.9375 25.625 32.972656 25.667969 32.992188 25.71875 C 33.011719 25.789062 33.027344 25.863281 33.042969 25.933594 C 33.074219 26.050781 33.109375 26.167969 33.132812 26.285156 C 33.164062 26.46875 33.195312 26.652344 33.21875 26.839844 C 33.226562 26.921875 33.222656 27.007812 33.25 27.089844 C 33.261719 27.125 33.257812 27.167969 33.261719 27.207031 C 33.269531 27.332031 33.28125 27.453125 33.28125 27.574219 C 33.28125 27.675781 33.269531 27.78125 33.261719 27.898438 C 33.164062 27.839844 33.082031 27.789062 32.996094 27.738281 C 32.921875 27.695312 32.84375 27.65625 32.769531 27.613281 C 32.644531 27.542969 32.507812 27.492188 32.378906 27.425781 C 32.296875 27.386719 32.210938 27.363281 32.125 27.332031 C 32.117188 27.332031 32.109375 27.332031 32.105469 27.328125 C 31.960938 27.242188 31.792969 27.210938 31.640625 27.15625 C 31.5625 27.128906 31.480469 27.113281 31.410156 27.074219 C 31.332031 27.035156 31.246094 27.039062 31.167969 27.007812 C 31.09375 26.980469 31.011719 26.96875 30.9375 26.941406 C 30.804688 26.886719 30.65625 26.886719 30.527344 26.824219 C 30.46875 26.796875 30.390625 26.804688 30.328125 26.78125 C 30.214844 26.738281 30.085938 26.742188 29.972656 26.699219 C 29.910156 26.671875 29.851562 26.644531 29.769531 26.671875 C 29.84375 26.71875 29.910156 26.761719 29.980469 26.800781 C 30.105469 26.875 30.230469 26.941406 30.355469 27.015625 C 30.519531 27.113281 30.683594 27.214844 30.84375 27.316406 C 31.003906 27.417969 31.164062 27.519531 31.316406 27.628906 C 31.472656 27.738281 31.621094 27.855469 31.773438 27.96875 C 31.914062 28.074219 32.050781 28.175781 32.1875 28.28125 C 32.363281 28.421875 32.53125 28.566406 32.703125 28.710938 C 32.816406 28.804688 32.933594 28.898438 33.042969 29 C 33.21875 29.167969 33.386719 29.339844 33.558594 29.511719 C 33.65625 29.609375 33.753906 29.703125 33.839844 29.808594 C 34.003906 29.996094 34.167969 30.1875 34.320312 30.382812 C 34.410156 30.496094 34.488281 30.621094 34.570312 30.742188 C 34.632812 30.839844 34.707031 30.933594 34.757812 31.035156 C 34.792969 31.105469 34.859375 31.164062 34.859375 31.253906 C 34.863281 31.269531 34.894531 31.28125 34.902344 31.300781 C 34.945312 31.382812 34.988281 31.460938 35.023438 31.542969 C 35.058594 31.621094 35.082031 31.699219 35.113281 31.777344 C 35.140625 31.835938 35.175781 31.890625 35.167969 31.957031 C 35.167969 31.976562 35.1875 31.992188 35.195312 32.011719 C 35.21875 32.078125 35.25 32.140625 35.25 32.214844 C 35.25 32.265625 35.273438 32.316406 35.289062 32.367188 C 35.320312 32.476562 35.316406 32.585938 35.328125 32.695312 C 35.347656 32.824219 35.367188 32.957031 35.402344 33.082031 C 35.417969 33.148438 35.46875 33.207031 35.460938 33.285156 C 35.515625 33.324219 35.527344 33.394531 35.558594 33.449219 C 35.671875 33.636719 35.808594 33.804688 35.945312 33.972656 C 36.113281 34.1875 36.28125 34.402344 36.453125 34.613281 C 36.609375 34.8125 36.773438 35.007812 36.929688 35.207031 C 37.070312 35.382812 37.207031 35.566406 37.351562 35.746094 C 37.507812 35.9375 37.667969 36.125 37.824219 36.320312 C 38.015625 36.5625 38.203125 36.8125 38.398438 37.054688 C 38.535156 37.222656 38.675781 37.386719 38.8125 37.554688 C 38.9375 37.707031 39.058594 37.867188 39.183594 38.023438 C 39.203125 38.050781 39.230469 38.074219 39.207031 38.113281 C 38.988281 38.101562 38.769531 38.113281 38.550781 38.128906 C 38.398438 38.136719 38.246094 38.132812 38.089844 38.144531 C 37.921875 38.152344 37.75 38.175781 37.578125 38.179688 C 37.453125 38.1875 37.324219 38.171875 37.199219 38.175781 C 37.035156 38.179688 36.882812 38.128906 36.71875 38.136719 C 36.632812 38.140625 36.539062 38.097656 36.453125 38.078125 C 36.402344 38.066406 36.351562 38.066406 36.300781 38.046875 C 36.203125 38.015625 36.105469 37.976562 36 37.9375 C 35.992188 37.972656 35.976562 38.007812 35.980469 38.039062 C 36 38.15625 35.984375 38.277344 36.027344 38.390625 C 36.039062 38.425781 36.046875 38.460938 36.054688 38.5 C 36.089844 38.707031 36.199219 38.875 36.371094 38.996094 C 36.460938 39.058594 36.574219 39.101562 36.675781 39.152344 C 36.78125 39.203125 36.890625 39.25 36.996094 39.296875 C 37.0625 39.328125 37.128906 39.351562 37.195312 39.375 C 37.339844 39.433594 37.472656 39.5 37.59375 39.59375 C 37.652344 39.640625 37.714844 39.679688 37.769531 39.726562 C 37.863281 39.808594 37.917969 39.917969 37.957031 40.046875 C 38.09375 39.992188 38.230469 39.9375 38.359375 39.875 C 38.449219 39.835938 38.703125 39.777344 38.808594 39.789062 C 38.761719 39.863281 38.722656 39.933594 38.675781 40.003906 C 38.613281 40.097656 38.546875 40.191406 38.480469 40.285156 C 38.359375 40.453125 38.253906 40.640625 38.113281 40.796875 C 38.023438 40.894531 37.957031 41.007812 37.871094 41.105469 C 37.796875 41.191406 37.714844 41.273438 37.605469 41.316406 C 37.566406 41.332031 37.539062 41.359375 37.5 41.386719 C 37.445312 41.242188 37.550781 41.140625 37.558594 41.019531 C 37.566406 40.898438 37.613281 40.785156 37.644531 40.65625 C 37.613281 40.660156 37.59375 40.65625 37.582031 40.664062 C 37.4375 40.769531 37.292969 40.871094 37.132812 40.953125 C 37.019531 41.011719 36.914062 41.097656 36.800781 41.15625 C 36.585938 41.269531 36.367188 41.371094 36.132812 41.4375 C 35.980469 41.476562 35.832031 41.523438 35.675781 41.542969 C 35.648438 41.546875 35.625 41.566406 35.601562 41.570312 C 35.457031 41.609375 35.3125 41.648438 35.164062 41.675781 C 35.082031 41.691406 35 41.710938 34.917969 41.726562 C 34.851562 41.742188 34.785156 41.75 34.71875 41.761719 C 34.675781 41.769531 34.636719 41.792969 34.59375 41.800781 C 34.433594 41.835938 34.273438 41.871094 34.113281 41.902344 C 33.933594 41.933594 33.75 41.957031 33.570312 41.984375 C 33.5 41.996094 33.429688 42.023438 33.359375 42.03125 C 33.277344 42.042969 33.199219 42.046875 33.117188 42.054688 C 33.101562 42.054688 33.085938 42.050781 33.074219 42.054688 C 32.851562 42.136719 32.621094 42.128906 32.386719 42.136719 C 32.332031 42.136719 32.273438 42.148438 32.214844 42.15625 C 32.042969 42.179688 31.867188 42.183594 31.695312 42.136719 C 31.6875 42.132812 31.675781 42.132812 31.667969 42.136719 C 31.550781 42.144531 31.445312 42.109375 31.335938 42.078125 C 31.199219 42.042969 31.078125 41.980469 30.957031 41.917969 C 30.855469 41.867188 30.75 41.824219 30.644531 41.773438 C 30.644531 41.785156 30.648438 41.800781 30.648438 41.820312 C 30.65625 41.871094 30.660156 41.925781 30.671875 41.980469 C 30.679688 42.015625 30.699219 42.050781 30.714844 42.089844 C 30.75 42.199219 30.78125 42.3125 30.824219 42.421875 C 30.847656 42.484375 30.894531 42.542969 30.925781 42.605469 C 30.976562 42.699219 31.046875 42.78125 31.117188 42.863281 C 31.253906 43.03125 31.425781 43.15625 31.625 43.25 C 31.757812 43.3125 31.902344 43.332031 32.042969 43.375 C 32.109375 43.394531 32.191406 43.382812 32.269531 43.382812 C 32.339844 43.378906 32.410156 43.378906 32.476562 43.382812 C 32.585938 43.386719 32.679688 43.347656 32.777344 43.335938 C 32.84375 43.324219 32.90625 43.324219 32.96875 43.308594 C 33.027344 43.296875 33.082031 43.265625 33.140625 43.253906 C 33.257812 43.230469 33.371094 43.191406 33.484375 43.15625 C 33.628906 43.117188 33.773438 43.082031 33.914062 43.035156 C 34.03125 42.992188 34.160156 42.96875 34.28125 42.929688 C 34.378906 42.902344 34.472656 42.863281 34.566406 42.828125 C 34.582031 42.824219 34.59375 42.8125 34.613281 42.808594 C 34.726562 42.773438 34.839844 42.75 34.953125 42.710938 C 35.0625 42.675781 35.171875 42.625 35.28125 42.585938 C 35.386719 42.550781 35.492188 42.523438 35.597656 42.484375 C 35.699219 42.449219 35.796875 42.40625 35.898438 42.367188 C 35.996094 42.332031 36.097656 42.300781 36.195312 42.265625 C 36.289062 42.230469 36.382812 42.191406 36.476562 42.15625 C 36.5625 42.121094 36.648438 42.085938 36.734375 42.058594 C 36.753906 42.050781 36.785156 42.058594 36.824219 42.0625 C 36.773438 42.222656 36.726562 42.371094 36.679688 42.519531 C 36.652344 42.609375 36.625 42.699219 36.597656 42.785156 C 36.585938 42.816406 36.578125 42.855469 36.554688 42.878906 C 36.53125 42.90625 36.515625 42.929688 36.515625 42.964844 C 36.515625 42.976562 36.515625 42.988281 36.507812 42.996094 C 36.433594 43.058594 36.429688 43.160156 36.375 43.234375 C 36.324219 43.308594 36.28125 43.390625 36.234375 43.46875 C 36.207031 43.511719 36.175781 43.558594 36.148438 43.601562 C 36.109375 43.664062 36.128906 43.726562 36.160156 43.78125 C 36.1875 43.832031 36.222656 43.875 36.222656 43.9375 C 36.222656 43.964844 36.257812 43.988281 36.261719 44.015625 C 36.292969 44.144531 36.347656 44.269531 36.375 44.398438 C 36.410156 44.542969 36.429688 44.691406 36.457031 44.835938 C 36.496094 45.078125 36.527344 45.316406 36.496094 45.558594 C 36.484375 45.675781 36.464844 45.792969 36.449219 45.90625 C 36.445312 45.933594 36.441406 45.960938 36.441406 45.988281 C 36.4375 46.027344 36.441406 46.070312 36.429688 46.105469 C 36.394531 46.234375 36.355469 46.363281 36.3125 46.492188 C 36.269531 46.625 36.207031 46.75 36.152344 46.878906 C 36.050781 47.105469 35.917969 47.3125 35.78125 47.519531 C 35.527344 47.894531 35.222656 48.21875 34.878906 48.507812 C 34.714844 48.644531 34.539062 48.773438 34.363281 48.902344 C 34.242188 48.988281 34.109375 49.0625 33.980469 49.140625 C 33.960938 49.152344 33.925781 49.160156 33.90625 49.148438 C 33.871094 49.132812 33.894531 49.101562 33.90625 49.078125 C 33.960938 48.964844 33.957031 48.84375 33.972656 48.722656 C 34.003906 48.519531 33.957031 48.324219 33.960938 48.125 C 33.960938 48.09375 33.933594 48.066406 33.925781 48.035156 C 33.898438 47.902344 33.851562 47.777344 33.796875 47.65625 C 33.734375 47.511719 33.644531 47.382812 33.558594 47.25 C 33.503906 47.164062 33.4375 47.078125 33.371094 47 C 33.304688 46.921875 33.230469 46.851562 33.15625 46.78125 C 33.074219 46.703125 32.988281 46.628906 32.898438 46.558594 C 32.742188 46.4375 32.585938 46.316406 32.425781 46.203125 C 32.222656 46.054688 32.011719 45.917969 31.800781 45.78125 C 31.703125 45.714844 31.59375 45.664062 31.496094 45.601562 C 31.351562 45.507812 31.199219 45.429688 31.042969 45.351562 C 30.914062 45.285156 30.785156 45.222656 30.65625 45.15625 C 30.53125 45.09375 30.402344 45.03125 30.273438 44.972656 C 30.140625 44.910156 30.003906 44.851562 29.871094 44.792969 C 29.726562 44.726562 29.585938 44.664062 29.441406 44.601562 C 29.363281 44.570312 29.285156 44.535156 29.210938 44.503906 C 29.109375 44.460938 29.011719 44.414062 28.914062 44.371094 C 28.832031 44.335938 28.75 44.308594 28.671875 44.269531 C 28.554688 44.214844 28.4375 44.15625 28.324219 44.097656 C 28.210938 44.039062 28.101562 43.976562 27.988281 43.910156 C 27.820312 43.816406 27.648438 43.734375 27.492188 43.621094 C 27.378906 43.535156 27.253906 43.472656 27.136719 43.394531 C 26.894531 43.234375 26.660156 43.070312 26.445312 42.875 C 26.328125 42.765625 26.199219 42.671875 26.085938 42.5625 C 25.921875 42.40625 25.761719 42.246094 25.609375 42.078125 C 25.417969 41.871094 25.25 41.652344 25.101562 41.414062 C 25.023438 41.292969 24.949219 41.171875 24.878906 41.046875 C 24.773438 40.875 24.6875 40.695312 24.613281 40.511719 C 24.554688 40.371094 24.503906 40.222656 24.453125 40.082031 C 24.449219 40.070312 24.441406 40.0625 24.441406 40.050781 C 24.449219 39.949219 24.386719 39.867188 24.375 39.769531 C 24.371094 39.738281 24.367188 39.703125 24.363281 39.671875 C 24.347656 39.570312 24.328125 39.472656 24.308594 39.355469 C 24.273438 39.433594 24.242188 39.503906 24.210938 39.570312 C 24.164062 39.664062 24.113281 39.757812 24.078125 39.859375 C 24.035156 39.972656 24.011719 40.089844 23.972656 40.203125 C 23.933594 40.324219 23.921875 40.453125 23.886719 40.574219 C 23.828125 40.765625 23.839844 40.960938 23.804688 41.167969 C 23.804688 41.199219 23.808594 41.21875 23.808594 41.234375 C 23.808594 41.300781 23.804688 41.371094 23.804688 41.453125 C 23.804688 41.472656 23.808594 41.476562 23.808594 41.476562 C 23.8125 41.566406 23.820312 41.652344 23.828125 41.75 C 23.796875 41.738281 23.777344 41.738281 23.769531 41.726562 C 23.683594 41.625 23.597656 41.523438 23.519531 41.414062 C 23.433594 41.289062 23.351562 41.160156 23.277344 41.03125 C 23.207031 40.910156 23.144531 40.785156 23.082031 40.664062 C 23.015625 40.53125 22.949219 40.398438 22.890625 40.261719 C 22.847656 40.160156 22.816406 40.054688 22.78125 39.953125 C 22.742188 39.839844 22.691406 39.726562 22.660156 39.613281 C 22.628906 39.476562 22.570312 39.347656 22.558594 39.203125 C 22.554688 39.121094 22.515625 39.042969 22.496094 38.945312 C 22.492188 38.929688 22.492188 38.925781 22.492188 38.921875 C 22.492188 38.878906 22.480469 38.839844 22.464844 38.796875 C 22.433594 38.699219 22.425781 38.59375 22.410156 38.488281 C 22.402344 38.421875 22.394531 38.355469 22.386719 38.289062 C 22.371094 38.191406 22.359375 38.089844 22.347656 37.988281 C 22.339844 37.90625 22.335938 37.824219 22.328125 37.742188 C 22.328125 37.730469 22.339844 37.714844 22.347656 37.683594 C 22.34375 37.667969 22.339844 37.660156 22.335938 37.65625 C 22.335938 37.363281 22.335938 37.070312 22.339844 36.761719 C 22.34375 36.742188 22.347656 36.734375 22.347656 36.730469 C 22.347656 36.71875 22.34375 36.710938 22.339844 36.6875 C 22.316406 36.710938 22.289062 36.722656 22.277344 36.742188 C 22.242188 36.824219 22.214844 36.90625 22.175781 36.988281 C 22.140625 37.074219 22.09375 37.15625 22.058594 37.242188 C 22.015625 37.34375 21.980469 37.449219 21.941406 37.550781 C 21.90625 37.644531 21.863281 37.734375 21.832031 37.828125 C 21.800781 37.929688 21.777344 38.035156 21.75 38.136719 C 21.734375 38.191406 21.710938 38.25 21.695312 38.308594 C 21.675781 38.378906 21.660156 38.449219 21.644531 38.519531 C 21.644531 38.53125 21.648438 38.542969 21.640625 38.550781 C 21.558594 38.644531 21.597656 38.765625 21.570312 38.871094 C 21.515625 39.046875 21.515625 39.234375 21.476562 39.414062 C 21.460938 39.492188 21.4375 39.566406 21.457031 39.648438 C 21.457031 39.660156 21.441406 39.671875 21.429688 39.699219 C 21.429688 39.742188 21.433594 39.773438 21.441406 39.804688 C 21.441406 39.8125 21.4375 39.820312 21.4375 39.839844 C 21.4375 39.859375 21.4375 39.871094 21.441406 39.882812 C 21.433594 39.9375 21.429688 39.992188 21.425781 40.0625 C 21.425781 40.082031 21.425781 40.085938 21.429688 40.089844 C 21.425781 40.183594 21.425781 40.277344 21.425781 40.390625 C 21.425781 40.410156 21.425781 40.410156 21.425781 40.414062 C 21.425781 40.464844 21.425781 40.511719 21.429688 40.574219 C 21.433594 40.605469 21.4375 40.625 21.4375 40.640625 C 21.4375 40.648438 21.4375 40.65625 21.4375 40.679688 C 21.433594 40.722656 21.433594 40.757812 21.429688 40.789062 C 21.441406 40.804688 21.460938 40.820312 21.457031 40.832031 C 21.433594 40.980469 21.507812 41.113281 21.515625 41.257812 C 21.519531 41.382812 21.570312 41.492188 21.589844 41.609375 C 21.621094 41.8125 21.710938 41.992188 21.757812 42.1875 C 21.777344 42.265625 21.820312 42.339844 21.855469 42.414062 C 21.925781 42.554688 21.988281 42.703125 22.0625 42.839844 C 22.175781 43.039062 22.304688 43.226562 22.441406 43.410156 C 22.644531 43.675781 22.871094 43.921875 23.117188 44.144531 C 23.285156 44.296875 23.460938 44.433594 23.640625 44.570312 C 23.847656 44.734375 24.074219 44.878906 24.304688 45.007812 C 24.429688 45.078125 24.546875 45.160156 24.671875 45.226562 C 24.78125 45.285156 24.898438 45.328125 25.011719 45.378906 C 25.097656 45.417969 25.183594 45.464844 25.269531 45.503906 C 25.347656 45.535156 25.429688 45.566406 25.507812 45.597656 C 25.605469 45.636719 25.699219 45.671875 25.792969 45.710938 C 25.894531 45.75 25.996094 45.796875 26.101562 45.832031 C 26.160156 45.851562 26.21875 45.882812 26.277344 45.90625 C 26.425781 45.972656 26.570312 46.050781 26.722656 46.105469 C 26.84375 46.148438 26.957031 46.207031 27.074219 46.257812 C 27.21875 46.324219 27.359375 46.398438 27.5 46.46875 C 27.613281 46.523438 27.722656 46.578125 27.832031 46.636719 C 28.003906 46.730469 28.167969 46.824219 28.335938 46.917969 C 28.472656 46.992188 28.609375 47.066406 28.742188 47.144531 C 29.046875 47.316406 29.324219 47.523438 29.582031 47.761719 C 29.824219 47.980469 30.046875 48.21875 30.226562 48.496094 C 30.316406 48.628906 30.414062 48.757812 30.5 48.898438 C 30.539062 48.964844 30.5625 49.042969 30.597656 49.113281 C 30.632812 49.191406 30.683594 49.269531 30.714844 49.351562 C 30.761719 49.457031 30.792969 49.566406 30.832031 49.671875 C 30.851562 49.738281 30.875 49.800781 30.890625 49.863281 C 30.917969 50.007812 30.945312 50.148438 30.96875 50.289062 C 30.972656 50.316406 30.96875 50.339844 30.96875 50.367188 C 30.96875 50.390625 30.960938 50.421875 30.972656 50.4375 C 31.023438 50.535156 31.007812 50.636719 31.011719 50.75 C 31.011719 50.769531 31.011719 50.773438 31.015625 50.777344 C 31.011719 50.855469 31.011719 50.933594 31.011719 51.011719 C 31.007812 51.074219 30.996094 51.136719 30.976562 51.199219 C 30.957031 51.265625 30.972656 51.339844 30.96875 51.410156 C 30.964844 51.460938 30.957031 51.511719 30.945312 51.558594 C 30.925781 51.660156 30.90625 51.757812 30.878906 51.851562 C 30.84375 51.980469 30.804688 52.109375 30.761719 52.234375 C 30.730469 52.335938 30.707031 52.4375 30.667969 52.527344 C 30.632812 52.605469 30.601562 52.683594 30.566406 52.757812 C 30.527344 52.835938 30.488281 52.910156 30.449219 52.988281 C 30.402344 53.078125 30.367188 53.175781 30.296875 53.253906 C 30.269531 53.289062 30.257812 53.347656 30.230469 53.390625 C 30.144531 53.515625 30.082031 53.648438 30 53.769531 C 29.875 53.957031 29.742188 54.136719 29.609375 54.320312 C 29.59375 54.34375 29.570312 54.355469 29.542969 54.378906 C 29.523438 54.269531 29.570312 54.183594 29.59375 54.09375 C 29.597656 54.078125 29.613281 54.066406 29.613281 54.050781 C 29.628906 53.921875 29.640625 53.789062 29.65625 53.660156 C 29.664062 53.609375 29.675781 53.5625 29.691406 53.5 C 29.699219 53.484375 29.699219 53.476562 29.699219 53.46875 C 29.695312 53.460938 29.683594 53.453125 29.683594 53.441406 C 29.6875 53.339844 29.695312 53.238281 29.699219 53.136719 C 29.699219 53.070312 29.695312 53.003906 29.695312 52.929688 C 29.699219 52.910156 29.695312 52.902344 29.6875 52.902344 Z M 33.769531 35.171875 C 33.796875 35.179688 33.824219 35.1875 33.851562 35.195312 C 33.851562 35.1875 33.855469 35.179688 33.855469 35.175781 C 33.820312 35.160156 33.789062 35.144531 33.742188 35.121094 C 33.675781 35.074219 33.609375 35.035156 33.550781 34.988281 C 33.402344 34.867188 33.253906 34.746094 33.117188 34.613281 C 32.984375 34.484375 32.859375 34.34375 32.738281 34.203125 C 32.636719 34.089844 32.546875 33.964844 32.453125 33.84375 C 32.351562 33.710938 32.25 33.578125 32.15625 33.4375 C 32.074219 33.308594 32.003906 33.175781 31.929688 33.046875 C 31.855469 32.914062 31.785156 32.78125 31.707031 32.652344 C 31.640625 32.539062 31.570312 32.429688 31.5 32.320312 C 31.445312 32.238281 31.390625 32.15625 31.332031 32.082031 C 31.261719 31.992188 31.1875 31.910156 31.050781 31.910156 C 30.910156 31.910156 30.769531 31.890625 30.628906 31.875 C 30.5625 31.871094 30.496094 31.855469 30.429688 31.859375 C 30.265625 31.867188 30.101562 31.882812 29.9375 31.894531 C 29.824219 31.902344 29.707031 31.898438 29.59375 31.921875 C 29.445312 31.949219 29.296875 31.996094 29.152344 32.035156 C 28.972656 32.082031 28.800781 32.136719 28.628906 32.207031 C 28.554688 32.238281 28.480469 32.261719 28.40625 32.292969 C 28.382812 32.304688 28.363281 32.324219 28.34375 32.335938 C 28.519531 32.363281 28.691406 32.34375 28.855469 32.421875 C 28.761719 32.546875 28.824219 32.664062 28.886719 32.761719 C 28.96875 32.894531 29.085938 33 29.21875 33.085938 C 29.335938 33.164062 29.457031 33.226562 29.585938 33.277344 C 29.695312 33.324219 29.8125 33.355469 29.925781 33.382812 C 30.070312 33.414062 30.222656 33.417969 30.375 33.417969 C 30.609375 33.421875 30.84375 33.410156 31.074219 33.347656 C 31.183594 33.453125 31.296875 33.554688 31.398438 33.664062 C 31.511719 33.78125 31.636719 33.886719 31.761719 33.992188 C 31.933594 34.136719 32.109375 34.277344 32.292969 34.414062 C 32.414062 34.507812 32.550781 34.585938 32.679688 34.667969 C 32.765625 34.722656 32.855469 34.773438 32.945312 34.820312 C 33.0625 34.882812 33.183594 34.949219 33.304688 35.003906 C 33.414062 35.050781 33.527344 35.082031 33.636719 35.128906 C 33.679688 35.144531 33.714844 35.171875 33.769531 35.171875 Z M 24.988281 27.492188 C 25.097656 27.5 25.207031 27.507812 25.316406 27.519531 C 25.371094 27.523438 25.429688 27.535156 25.488281 27.542969 C 25.527344 27.546875 25.570312 27.542969 25.609375 27.550781 C 25.699219 27.570312 25.785156 27.609375 25.875 27.613281 C 25.972656 27.621094 26.0625 27.636719 26.152344 27.679688 C 26.175781 27.691406 26.214844 27.683594 26.25 27.683594 C 26.246094 27.660156 26.246094 27.640625 26.238281 27.632812 C 26.179688 27.558594 26.121094 27.484375 26.0625 27.414062 C 25.808594 27.105469 25.546875 26.800781 25.25 26.527344 C 25.03125 26.332031 24.808594 26.140625 24.566406 25.972656 C 24.394531 25.855469 24.21875 25.753906 24.042969 25.648438 C 23.984375 25.613281 23.921875 25.585938 23.859375 25.558594 C 23.753906 25.511719 23.644531 25.46875 23.535156 25.425781 C 23.511719 25.414062 23.484375 25.410156 23.460938 25.402344 C 23.410156 25.390625 23.363281 25.375 23.3125 25.359375 C 23.289062 25.351562 23.261719 25.335938 23.234375 25.332031 C 23.132812 25.3125 23.027344 25.296875 22.925781 25.277344 C 22.84375 25.265625 22.765625 25.25 22.679688 25.261719 C 22.589844 25.277344 22.496094 25.265625 22.402344 25.261719 C 22.347656 25.261719 22.292969 25.253906 22.242188 25.257812 C 22.117188 25.273438 21.996094 25.292969 21.875 25.320312 C 21.746094 25.34375 21.613281 25.363281 21.492188 25.414062 C 21.390625 25.457031 21.28125 25.496094 21.179688 25.546875 C 21.011719 25.636719 20.851562 25.734375 20.703125 25.855469 C 20.535156 25.988281 20.390625 26.144531 20.253906 26.308594 C 20.167969 26.414062 20.105469 26.539062 20.035156 26.65625 C 20.003906 26.703125 19.972656 26.75 19.953125 26.800781 C 19.917969 26.886719 19.894531 26.976562 19.855469 27.0625 C 19.792969 27.210938 19.742188 27.359375 19.707031 27.515625 C 19.691406 27.578125 19.671875 27.640625 19.65625 27.703125 C 19.644531 27.761719 19.640625 27.824219 19.625 27.882812 C 19.585938 28.050781 19.5625 28.222656 19.5625 28.40625 C 19.5625 28.410156 19.5625 28.414062 19.5625 28.4375 C 19.554688 28.585938 19.550781 28.734375 19.535156 28.882812 C 19.519531 29.078125 19.492188 29.269531 19.496094 29.464844 C 19.5 29.570312 19.480469 29.679688 19.46875 29.785156 C 19.457031 29.878906 19.441406 29.972656 19.425781 30.066406 C 19.414062 30.160156 19.410156 30.253906 19.382812 30.34375 C 19.363281 30.402344 19.351562 30.453125 19.351562 30.511719 C 19.355469 30.535156 19.347656 30.558594 19.34375 30.582031 C 19.320312 30.691406 19.261719 30.789062 19.265625 30.902344 C 19.269531 30.914062 19.265625 30.925781 19.257812 30.933594 C 19.195312 31.042969 19.195312 31.175781 19.132812 31.292969 C 19.0625 31.417969 19.03125 31.570312 18.960938 31.695312 C 18.875 31.847656 18.777344 32 18.644531 32.121094 C 18.589844 32.167969 18.535156 32.214844 18.464844 32.277344 C 18.503906 32.277344 18.523438 32.28125 18.542969 32.277344 C 18.617188 32.265625 18.6875 32.246094 18.761719 32.238281 C 18.996094 32.203125 19.234375 32.175781 19.46875 32.132812 C 19.609375 32.105469 19.746094 32.050781 19.886719 32.011719 C 19.945312 31.996094 20.007812 31.988281 20.0625 31.96875 C 20.175781 31.929688 20.285156 31.886719 20.398438 31.847656 C 20.546875 31.789062 20.699219 31.746094 20.839844 31.675781 C 21.050781 31.570312 21.261719 31.464844 21.460938 31.335938 C 21.699219 31.183594 21.917969 31.011719 22.121094 30.820312 C 22.34375 30.605469 22.535156 30.371094 22.6875 30.105469 C 22.71875 30.054688 22.757812 30.007812 22.78125 29.953125 C 22.800781 29.894531 22.816406 29.839844 22.863281 29.796875 C 22.875 29.785156 22.867188 29.757812 22.867188 29.726562 C 22.671875 29.726562 22.480469 29.71875 22.285156 29.726562 C 22.097656 29.738281 21.90625 29.753906 21.714844 29.777344 C 21.527344 29.804688 21.335938 29.835938 21.152344 29.886719 C 20.972656 29.9375 20.789062 29.988281 20.609375 30.039062 C 20.628906 29.980469 20.65625 29.933594 20.695312 29.898438 C 20.808594 29.785156 20.921875 29.671875 21.039062 29.566406 C 21.230469 29.390625 21.433594 29.230469 21.648438 29.089844 C 21.765625 29.011719 21.890625 28.949219 22.003906 28.871094 C 22.125 28.777344 22.265625 28.714844 22.398438 28.648438 C 22.476562 28.609375 22.550781 28.570312 22.625 28.535156 C 22.707031 28.5 22.785156 28.460938 22.871094 28.429688 C 22.953125 28.398438 23.050781 28.390625 23.128906 28.347656 C 23.25 28.285156 23.390625 28.28125 23.511719 28.21875 C 23.523438 28.214844 23.535156 28.210938 23.542969 28.210938 C 23.640625 28.222656 23.722656 28.160156 23.816406 28.148438 C 23.828125 28.148438 23.839844 28.136719 23.847656 28.132812 C 23.765625 28.097656 23.6875 28.082031 23.605469 28.074219 C 23.460938 28.054688 23.320312 28.042969 23.175781 28.027344 C 23.164062 28.027344 23.148438 28.019531 23.136719 28.015625 C 23.101562 28.007812 23.066406 27.992188 23.03125 27.992188 C 22.859375 27.992188 22.683594 27.992188 22.511719 27.992188 C 22.488281 27.992188 22.457031 27.984375 22.441406 27.996094 C 22.363281 28.054688 22.277344 28.019531 22.171875 28.046875 C 22.199219 28.015625 22.210938 27.996094 22.226562 27.988281 C 22.300781 27.957031 22.378906 27.929688 22.457031 27.898438 C 22.554688 27.859375 22.648438 27.8125 22.75 27.785156 C 22.875 27.753906 22.992188 27.6875 23.128906 27.6875 C 23.253906 27.613281 23.40625 27.628906 23.539062 27.582031 C 23.636719 27.550781 23.75 27.554688 23.851562 27.542969 C 23.882812 27.539062 23.917969 27.542969 23.945312 27.535156 C 24.121094 27.476562 24.304688 27.496094 24.484375 27.480469 C 24.53125 27.480469 24.582031 27.503906 24.617188 27.488281 C 24.664062 27.46875 24.695312 27.492188 24.746094 27.5 C 24.761719 27.492188 24.78125 27.488281 24.8125 27.480469 C 24.847656 27.480469 24.882812 27.484375 24.929688 27.488281 C 24.941406 27.488281 24.957031 27.492188 24.988281 27.492188 Z M 24.988281 27.492188 " fill-opacity="1" fill-rule="nonzero"/><path fill="#423100" d="M 13.242188 22.707031 C 13.277344 22.691406 13.308594 22.683594 13.355469 22.667969 C 13.339844 22.734375 13.292969 22.726562 13.25 22.734375 C 13.242188 22.726562 13.242188 22.722656 13.242188 22.707031 Z M 13.242188 22.707031 " fill-opacity="1" fill-rule="nonzero"/><path fill="#5f4701" d="M 10.199219 29.332031 C 10.230469 29.308594 10.265625 29.285156 10.300781 29.261719 C 10.304688 29.269531 10.308594 29.273438 10.3125 29.277344 C 10.285156 29.300781 10.257812 29.328125 10.226562 29.355469 C 10.214844 29.351562 10.210938 29.34375 10.199219 29.332031 Z M 10.199219 29.332031 " fill-opacity="1" fill-rule="nonzero"/><path fill="#5f4301" d="M 21.4375 40.785156 C 21.433594 40.757812 21.433594 40.722656 21.4375 40.683594 C 21.441406 40.710938 21.441406 40.746094 21.4375 40.785156 Z M 21.4375 40.785156 " fill-opacity="1" fill-rule="nonzero"/><path fill="#5f4701" d="M 21.445312 39.796875 C 21.433594 39.773438 21.429688 39.742188 21.429688 39.707031 C 21.46875 39.726562 21.457031 39.757812 21.445312 39.796875 Z M 21.445312 39.796875 " fill-opacity="1" fill-rule="nonzero"/><path fill="#c08200" d="M 25.296875 53.871094 C 25.300781 53.886719 25.300781 53.910156 25.300781 53.9375 C 25.296875 53.921875 25.292969 53.898438 25.296875 53.871094 Z M 25.296875 53.871094 " fill-opacity="1" fill-rule="nonzero"/><path fill="#5f4301" d="M 21.441406 40.632812 C 21.4375 40.625 21.433594 40.605469 21.429688 40.582031 C 21.433594 40.59375 21.4375 40.609375 21.441406 40.632812 Z M 21.441406 40.632812 " fill-opacity="1" fill-rule="nonzero"/><path fill="#3f2d00" d="M 23.8125 41.226562 C 23.808594 41.21875 23.804688 41.203125 23.804688 41.175781 C 23.808594 41.1875 23.8125 41.207031 23.8125 41.226562 Z M 23.8125 41.226562 " fill-opacity="1" fill-rule="nonzero"/><path fill="#5f4701" d="M 21.441406 39.878906 C 21.4375 39.871094 21.4375 39.859375 21.4375 39.84375 C 21.441406 39.851562 21.441406 39.859375 21.441406 39.878906 Z M 21.441406 39.878906 " fill-opacity="1" fill-rule="nonzero"/><path fill="#c08200" d="M 25.285156 53.503906 C 25.292969 53.507812 25.296875 53.519531 25.300781 53.53125 C 25.292969 53.527344 25.289062 53.519531 25.285156 53.503906 Z M 25.285156 53.503906 " fill-opacity="1" fill-rule="nonzero"/><path fill="#b37e02" d="M 12.300781 45.707031 C 12.296875 45.699219 12.296875 45.6875 12.300781 45.671875 C 12.304688 45.679688 12.304688 45.691406 12.300781 45.707031 Z M 12.300781 45.707031 " fill-opacity="1" fill-rule="nonzero"/><path fill="#ae7c02" d="M 12.308594 46.601562 C 12.304688 46.597656 12.300781 46.582031 12.296875 46.566406 C 12.300781 46.570312 12.304688 46.582031 12.308594 46.601562 Z M 12.308594 46.601562 " fill-opacity="1" fill-rule="nonzero"/><path fill="#3f2d00" d="M 21.273438 20.070312 C 21.273438 20.074219 21.269531 20.074219 21.261719 20.074219 C 21.261719 20.070312 21.265625 20.070312 21.273438 20.070312 Z M 21.273438 20.070312 " fill-opacity="1" fill-rule="nonzero"/><path fill="#ae7c02" d="M 29.695312 53.472656 C 29.699219 53.476562 29.699219 53.484375 29.691406 53.492188 C 29.6875 53.488281 29.6875 53.480469 29.695312 53.472656 Z M 29.695312 53.472656 " fill-opacity="1" fill-rule="nonzero"/><path fill="#b17801" d="M 29.6875 52.90625 C 29.695312 52.902344 29.699219 52.910156 29.699219 52.921875 C 29.695312 52.921875 29.691406 52.917969 29.6875 52.90625 Z M 29.6875 52.90625 " fill-opacity="1" fill-rule="nonzero"/><path fill="#3f3000" d="M 31.015625 50.773438 C 31.011719 50.773438 31.011719 50.769531 31.011719 50.761719 C 31.015625 50.761719 31.015625 50.765625 31.015625 50.773438 Z M 31.015625 50.773438 " fill-opacity="1" fill-rule="nonzero"/><path fill="#937101" d="M 12.550781 49.058594 C 12.542969 49.0625 12.539062 49.058594 12.535156 49.046875 C 12.542969 49.046875 12.546875 49.046875 12.550781 49.058594 Z M 12.550781 49.058594 " fill-opacity="1" fill-rule="nonzero"/><path fill="#937101" d="M 12.53125 48.953125 C 12.527344 48.957031 12.523438 48.949219 12.523438 48.945312 C 12.523438 48.945312 12.523438 48.941406 12.527344 48.9375 C 12.53125 48.9375 12.53125 48.941406 12.53125 48.953125 Z M 12.53125 48.953125 " fill-opacity="1" fill-rule="nonzero"/><path fill="#937101" d="M 12.539062 48.890625 C 12.53125 48.890625 12.527344 48.886719 12.523438 48.875 C 12.527344 48.875 12.535156 48.882812 12.539062 48.890625 Z M 12.539062 48.890625 " fill-opacity="1" fill-rule="nonzero"/><path fill="#3f2d00" d="M 23.8125 41.476562 C 23.808594 41.476562 23.804688 41.472656 23.804688 41.460938 C 23.808594 41.460938 23.8125 41.46875 23.8125 41.476562 Z M 23.8125 41.476562 " fill-opacity="1" fill-rule="nonzero"/><path fill="#b37e02" d="M 22.34375 36.734375 C 22.347656 36.734375 22.34375 36.742188 22.339844 36.753906 C 22.339844 36.75 22.339844 36.742188 22.34375 36.734375 Z M 22.34375 36.734375 " fill-opacity="1" fill-rule="nonzero"/><path fill="#b37e02" d="M 22.335938 37.660156 C 22.339844 37.660156 22.34375 37.667969 22.347656 37.675781 C 22.34375 37.675781 22.339844 37.671875 22.335938 37.660156 Z M 22.335938 37.660156 " fill-opacity="1" fill-rule="nonzero"/><path fill="#463300" d="M 22.488281 38.925781 C 22.492188 38.925781 22.492188 38.929688 22.492188 38.9375 C 22.488281 38.9375 22.488281 38.933594 22.488281 38.925781 Z M 22.488281 38.925781 " fill-opacity="1" fill-rule="nonzero"/><path fill="#412e00" d="M 21.429688 40.414062 C 21.425781 40.410156 21.425781 40.410156 21.425781 40.398438 C 21.429688 40.398438 21.433594 40.402344 21.433594 40.40625 C 21.4375 40.40625 21.433594 40.410156 21.429688 40.414062 Z M 21.429688 40.414062 " fill-opacity="1" fill-rule="nonzero"/><path fill="#412e00" d="M 21.429688 40.085938 C 21.425781 40.085938 21.425781 40.082031 21.425781 40.070312 C 21.429688 40.070312 21.429688 40.078125 21.429688 40.085938 Z M 21.429688 40.085938 " fill-opacity="1" fill-rule="nonzero"/><path fill="#a57801" d="M 33.765625 35.167969 C 33.761719 35.15625 33.757812 35.148438 33.757812 35.132812 C 33.789062 35.144531 33.820312 35.160156 33.855469 35.175781 C 33.855469 35.179688 33.851562 35.1875 33.851562 35.195312 C 33.824219 35.1875 33.796875 35.179688 33.765625 35.167969 Z M 33.765625 35.167969 " fill-opacity="1" fill-rule="nonzero"/><path fill="#000000" d="M 24.0625 47.433594 C 24.042969 47.421875 24.027344 47.40625 24.011719 47.394531 C 24.015625 47.390625 24.019531 47.382812 24.023438 47.378906 C 24.039062 47.386719 24.054688 47.398438 24.074219 47.414062 C 24.070312 47.425781 24.070312 47.425781 24.0625 47.433594 Z M 24.0625 47.433594 " fill-opacity="1" fill-rule="nonzero"/><path fill="#b17801" d="M 24.738281 27.496094 C 24.75 27.492188 24.765625 27.484375 24.789062 27.480469 C 24.78125 27.488281 24.761719 27.492188 24.738281 27.496094 Z M 24.738281 27.496094 " fill-opacity="1" fill-rule="nonzero"/><path fill="#b17801" d="M 24.925781 27.488281 C 24.933594 27.484375 24.945312 27.480469 24.964844 27.488281 C 24.957031 27.492188 24.941406 27.488281 24.925781 27.488281 Z M 24.925781 27.488281 " fill-opacity="1" fill-rule="nonzero"/><path fill="#412e00" d="M 19.5625 28.402344 C 19.566406 28.402344 19.566406 28.410156 19.566406 28.417969 C 19.5625 28.414062 19.5625 28.410156 19.5625 28.402344 Z M 19.5625 28.402344 " fill-opacity="1" fill-rule="nonzero"/><g fill="#000000" fill-opacity="1"><g transform="translate(41.415758, 49.473984)"><g><path d="M 2.515625 0 L 1.3125 0 L 1.3125 -10.703125 L 6.4375 -10.703125 C 7.519531 -10.703125 8.390625 -10.398438 9.046875 -9.796875 C 9.703125 -9.203125 10.03125 -8.382812 10.03125 -7.34375 C 10.03125 -6.007812 9.476562 -5.101562 8.375 -4.625 C 8.0625 -4.476562 7.753906 -4.375 7.453125 -4.3125 L 10.265625 0 L 8.828125 0 L 6.234375 -4.109375 L 2.515625 -4.109375 Z M 2.515625 -5.25 L 6.21875 -5.25 C 7.363281 -5.25 8.148438 -5.601562 8.578125 -6.3125 C 8.742188 -6.582031 8.828125 -6.925781 8.828125 -7.34375 C 8.828125 -8.03125 8.59375 -8.566406 8.125 -8.953125 C 7.664062 -9.347656 7.050781 -9.546875 6.28125 -9.546875 L 2.515625 -9.546875 Z M 2.515625 -5.25 "/></g></g></g><g fill="#000000" fill-opacity="1"><g transform="translate(51.42975, 49.473984)"><g><path d="M 6.875 0 L 6.875 -1.265625 C 6.59375 -0.867188 6.238281 -0.535156 5.8125 -0.265625 C 5.394531 -0.00390625 4.914062 0.125 4.375 0.125 C 3.84375 0.125 3.378906 0.0507812 2.984375 -0.09375 C 2.597656 -0.25 2.257812 -0.476562 1.96875 -0.78125 C 1.300781 -1.4375 0.96875 -2.300781 0.96875 -3.375 L 0.96875 -8.078125 L 2.1875 -8.078125 L 2.1875 -3.40625 C 2.1875 -2.664062 2.394531 -2.070312 2.8125 -1.625 C 3.226562 -1.1875 3.769531 -0.96875 4.4375 -0.96875 C 5.113281 -0.96875 5.691406 -1.191406 6.171875 -1.640625 C 6.640625 -2.109375 6.875 -2.703125 6.875 -3.421875 L 6.875 -8.078125 L 8.09375 -8.078125 L 8.09375 0 Z M 6.875 0 "/></g></g></g><g fill="#000000" fill-opacity="1"><g transform="translate(59.780016, 49.473984)"><g><path d="M 7.34375 -6.78125 L 7.34375 -8.078125 L 8.5625 -8.078125 L 8.5625 -0.25 C 8.5625 0.914062 8.226562 1.800781 7.5625 2.40625 C 6.90625 3.019531 6.015625 3.328125 4.890625 3.328125 C 3.773438 3.328125 2.898438 3.109375 2.265625 2.671875 C 1.640625 2.242188 1.210938 1.675781 0.984375 0.96875 L 2.328125 0.96875 C 2.671875 1.8125 3.457031 2.234375 4.6875 2.234375 C 5.625 2.234375 6.300781 2.015625 6.71875 1.578125 C 7.132812 1.148438 7.34375 0.515625 7.34375 -0.328125 L 7.34375 -1.4375 C 6.6875 -0.476562 5.722656 0 4.453125 0 C 3.296875 0 2.347656 -0.398438 1.609375 -1.203125 C 0.898438 -1.972656 0.546875 -2.941406 0.546875 -4.109375 C 0.546875 -5.265625 0.898438 -6.234375 1.609375 -7.015625 C 2.347656 -7.804688 3.328125 -8.203125 4.546875 -8.203125 C 5.765625 -8.203125 6.695312 -7.726562 7.34375 -6.78125 Z M 4.625 -1.09375 C 5.0625 -1.09375 5.453125 -1.171875 5.796875 -1.328125 C 6.140625 -1.484375 6.4375 -1.695312 6.6875 -1.96875 C 7.175781 -2.53125 7.421875 -3.242188 7.421875 -4.109375 C 7.421875 -4.960938 7.175781 -5.671875 6.6875 -6.234375 C 6.15625 -6.816406 5.46875 -7.109375 4.625 -7.109375 C 3.75 -7.109375 3.046875 -6.816406 2.515625 -6.234375 C 2.015625 -5.660156 1.765625 -4.953125 1.765625 -4.109375 C 1.765625 -3.253906 2.015625 -2.539062 2.515625 -1.96875 C 3.046875 -1.382812 3.75 -1.09375 4.625 -1.09375 Z M 4.625 -1.09375 "/></g></g></g><g fill="#000000" fill-opacity="1"><g transform="translate(68.598721, 49.473984)"><g><path d="M 1.046875 -8.078125 L 2.265625 -8.078125 L 2.265625 0 L 1.046875 0 Z M 2.3125 -11.015625 L 2.3125 -9.4375 L 1 -9.4375 L 1 -11.015625 Z M 2.3125 -11.015625 "/></g></g></g><g fill="#000000" fill-opacity="1"><g transform="translate(71.11789, 49.473984)"><g><path d="M 7.34375 -1.296875 C 6.695312 -0.347656 5.734375 0.125 4.453125 0.125 C 3.296875 0.125 2.347656 -0.273438 1.609375 -1.078125 C 0.898438 -1.878906 0.546875 -2.863281 0.546875 -4.03125 C 0.546875 -5.207031 0.898438 -6.195312 1.609375 -7 C 2.347656 -7.800781 3.320312 -8.203125 4.53125 -8.203125 C 5.75 -8.203125 6.6875 -7.722656 7.34375 -6.765625 L 7.34375 -11.3125 L 8.5625 -11.3125 L 8.5625 0 L 7.34375 0 Z M 4.625 -0.96875 C 5.488281 -0.96875 6.175781 -1.269531 6.6875 -1.875 C 7.175781 -2.445312 7.421875 -3.164062 7.421875 -4.03125 C 7.421875 -4.90625 7.175781 -5.628906 6.6875 -6.203125 C 6.175781 -6.804688 5.488281 -7.109375 4.625 -7.109375 C 3.757812 -7.109375 3.054688 -6.804688 2.515625 -6.203125 C 2.015625 -5.628906 1.765625 -4.90625 1.765625 -4.03125 C 1.765625 -3.164062 2.015625 -2.445312 2.515625 -1.875 C 3.054688 -1.269531 3.757812 -0.96875 4.625 -0.96875 Z M 4.625 -0.96875 "/></g></g></g><g fill="#000000" fill-opacity="1"><g transform="translate(79.936593, 49.473984)"><g><path d="M 4.5625 -8.203125 C 5.757812 -8.203125 6.738281 -7.800781 7.5 -7 C 8.207031 -6.21875 8.5625 -5.226562 8.5625 -4.03125 C 8.5625 -2.84375 8.207031 -1.859375 7.5 -1.078125 C 6.738281 -0.273438 5.757812 0.125 4.5625 0.125 C 3.351562 0.125 2.367188 -0.273438 1.609375 -1.078125 C 0.898438 -1.859375 0.546875 -2.84375 0.546875 -4.03125 C 0.546875 -5.226562 0.898438 -6.21875 1.609375 -7 C 2.367188 -7.800781 3.351562 -8.203125 4.5625 -8.203125 Z M 4.5625 -0.96875 C 5.425781 -0.96875 6.113281 -1.269531 6.625 -1.875 C 7.101562 -2.445312 7.34375 -3.164062 7.34375 -4.03125 C 7.34375 -4.90625 7.101562 -5.628906 6.625 -6.203125 C 6.113281 -6.804688 5.425781 -7.109375 4.5625 -7.109375 C 3.6875 -7.109375 2.992188 -6.804688 2.484375 -6.203125 C 2.003906 -5.628906 1.765625 -4.90625 1.765625 -4.03125 C 1.765625 -3.164062 2.003906 -2.445312 2.484375 -1.875 C 2.992188 -1.269531 3.6875 -0.96875 4.5625 -0.96875 Z M 4.5625 -0.96875 "/></g></g></g><g fill="#000000" fill-opacity="1"><g transform="translate(88.254564, 49.473984)"><g/></g></g><g fill="#000000" fill-opacity="1"><g transform="translate(90.902959, 49.473984)"><g><path d="M 7.34375 -1.296875 C 6.695312 -0.347656 5.734375 0.125 4.453125 0.125 C 3.296875 0.125 2.347656 -0.273438 1.609375 -1.078125 C 0.898438 -1.878906 0.546875 -2.863281 0.546875 -4.03125 C 0.546875 -5.207031 0.898438 -6.195312 1.609375 -7 C 2.347656 -7.800781 3.320312 -8.203125 4.53125 -8.203125 C 5.75 -8.203125 6.6875 -7.722656 7.34375 -6.765625 L 7.34375 -11.3125 L 8.5625 -11.3125 L 8.5625 0 L 7.34375 0 Z M 4.625 -0.96875 C 5.488281 -0.96875 6.175781 -1.269531 6.6875 -1.875 C 7.175781 -2.445312 7.421875 -3.164062 7.421875 -4.03125 C 7.421875 -4.90625 7.175781 -5.628906 6.6875 -6.203125 C 6.175781 -6.804688 5.488281 -7.109375 4.625 -7.109375 C 3.757812 -7.109375 3.054688 -6.804688 2.515625 -6.203125 C 2.015625 -5.628906 1.765625 -4.90625 1.765625 -4.03125 C 1.765625 -3.164062 2.015625 -2.445312 2.515625 -1.875 C 3.054688 -1.269531 3.757812 -0.96875 4.625 -0.96875 Z M 4.625 -0.96875 "/></g></g></g><g fill="#000000" fill-opacity="1"><g transform="translate(99.721665, 49.473984)"><g><path d="M 4.5625 -8.203125 C 5.757812 -8.203125 6.738281 -7.800781 7.5 -7 C 8.207031 -6.21875 8.5625 -5.226562 8.5625 -4.03125 C 8.5625 -2.84375 8.207031 -1.859375 7.5 -1.078125 C 6.738281 -0.273438 5.757812 0.125 4.5625 0.125 C 3.351562 0.125 2.367188 -0.273438 1.609375 -1.078125 C 0.898438 -1.859375 0.546875 -2.84375 0.546875 -4.03125 C 0.546875 -5.226562 0.898438 -6.21875 1.609375 -7 C 2.367188 -7.800781 3.351562 -8.203125 4.5625 -8.203125 Z M 4.5625 -0.96875 C 5.425781 -0.96875 6.113281 -1.269531 6.625 -1.875 C 7.101562 -2.445312 7.34375 -3.164062 7.34375 -4.03125 C 7.34375 -4.90625 7.101562 -5.628906 6.625 -6.203125 C 6.113281 -6.804688 5.425781 -7.109375 4.5625 -7.109375 C 3.6875 -7.109375 2.992188 -6.804688 2.484375 -6.203125 C 2.003906 -5.628906 1.765625 -4.90625 1.765625 -4.03125 C 1.765625 -3.164062 2.003906 -2.445312 2.484375 -1.875 C 2.992188 -1.269531 3.6875 -0.96875 4.5625 -0.96875 Z M 4.5625 -0.96875 "/></g></g></g><g fill="#000000" fill-opacity="1"><g transform="translate(108.039637, 49.473984)"><g/></g></g><g fill="#000000" fill-opacity="1"><g transform="translate(110.688032, 49.473984)"><g><path d="M 2.515625 -10.703125 L 2.515625 -1.15625 L 8.359375 -1.15625 L 8.359375 0 L 1.3125 0 L 1.3125 -10.703125 Z M 2.515625 -10.703125 "/></g></g></g><g fill="#000000" fill-opacity="1"><g transform="translate(118.505272, 49.473984)"><g><path d="M 4.65625 -0.96875 C 5.738281 -0.96875 6.519531 -1.421875 7 -2.328125 L 8.328125 -2.328125 C 8.046875 -1.597656 7.597656 -1.003906 6.984375 -0.546875 C 6.378906 -0.0976562 5.597656 0.125 4.640625 0.125 C 3.421875 0.125 2.429688 -0.273438 1.671875 -1.078125 C 0.921875 -1.867188 0.546875 -2.851562 0.546875 -4.03125 C 0.546875 -5.226562 0.898438 -6.21875 1.609375 -7 C 2.367188 -7.800781 3.351562 -8.203125 4.5625 -8.203125 C 5.757812 -8.203125 6.738281 -7.800781 7.5 -7 C 8.207031 -6.21875 8.5625 -5.226562 8.5625 -4.03125 L 8.5625 -3.546875 L 1.796875 -3.546875 C 1.878906 -2.804688 2.175781 -2.195312 2.6875 -1.71875 C 3.195312 -1.21875 3.851562 -0.96875 4.65625 -0.96875 Z M 4.5625 -7.109375 C 3.8125 -7.109375 3.1875 -6.875 2.6875 -6.40625 C 2.207031 -5.96875 1.914062 -5.394531 1.8125 -4.6875 L 7.296875 -4.6875 C 7.191406 -5.394531 6.90625 -5.96875 6.4375 -6.40625 C 5.925781 -6.875 5.300781 -7.109375 4.5625 -7.109375 Z M 4.5625 -7.109375 "/></g></g></g><g fill="#000000" fill-opacity="1"><g transform="translate(126.710164, 49.473984)"><g><path d="M 7.34375 -1.296875 C 6.695312 -0.347656 5.734375 0.125 4.453125 0.125 C 3.296875 0.125 2.347656 -0.273438 1.609375 -1.078125 C 0.898438 -1.878906 0.546875 -2.863281 0.546875 -4.03125 C 0.546875 -5.207031 0.898438 -6.195312 1.609375 -7 C 2.347656 -7.800781 3.320312 -8.203125 4.53125 -8.203125 C 5.75 -8.203125 6.6875 -7.722656 7.34375 -6.765625 L 7.34375 -8.078125 L 8.5625 -8.078125 L 8.5625 0 L 7.34375 0 Z M 4.625 -0.96875 C 5.488281 -0.96875 6.175781 -1.269531 6.6875 -1.875 C 7.175781 -2.445312 7.421875 -3.164062 7.421875 -4.03125 C 7.421875 -4.90625 7.175781 -5.628906 6.6875 -6.203125 C 6.175781 -6.804688 5.488281 -7.109375 4.625 -7.109375 C 3.757812 -7.109375 3.054688 -6.804688 2.515625 -6.203125 C 2.015625 -5.628906 1.765625 -4.90625 1.765625 -4.03125 C 1.765625 -3.164062 2.015625 -2.445312 2.515625 -1.875 C 3.054688 -1.269531 3.757812 -0.96875 4.625 -0.96875 Z M 3.484375 -9.84375 C 3.109375 -9.84375 2.835938 -9.628906 2.671875 -9.203125 L 2.171875 -9.203125 C 2.253906 -9.921875 2.550781 -10.40625 3.0625 -10.65625 C 3.257812 -10.75 3.488281 -10.796875 3.75 -10.796875 C 4.101562 -10.796875 4.429688 -10.71875 4.734375 -10.5625 C 5.035156 -10.414062 5.265625 -10.304688 5.421875 -10.234375 C 5.578125 -10.160156 5.757812 -10.125 5.96875 -10.125 C 6.175781 -10.125 6.34375 -10.195312 6.46875 -10.34375 C 6.59375 -10.488281 6.675781 -10.632812 6.71875 -10.78125 L 7.234375 -10.78125 C 7.066406 -9.71875 6.550781 -9.1875 5.6875 -9.1875 C 5.300781 -9.1875 4.960938 -9.257812 4.671875 -9.40625 C 4.378906 -9.550781 4.15625 -9.660156 4 -9.734375 C 3.84375 -9.804688 3.671875 -9.84375 3.484375 -9.84375 Z M 3.484375 -9.84375 "/></g></g></g><g fill="#000000" fill-opacity="1"><g transform="translate(135.528867, 49.473984)"><g><path d="M 4.5625 -8.203125 C 5.757812 -8.203125 6.738281 -7.800781 7.5 -7 C 8.207031 -6.21875 8.5625 -5.226562 8.5625 -4.03125 C 8.5625 -2.84375 8.207031 -1.859375 7.5 -1.078125 C 6.738281 -0.273438 5.757812 0.125 4.5625 0.125 C 3.351562 0.125 2.367188 -0.273438 1.609375 -1.078125 C 0.898438 -1.859375 0.546875 -2.84375 0.546875 -4.03125 C 0.546875 -5.226562 0.898438 -6.21875 1.609375 -7 C 2.367188 -7.800781 3.351562 -8.203125 4.5625 -8.203125 Z M 4.5625 -0.96875 C 5.425781 -0.96875 6.113281 -1.269531 6.625 -1.875 C 7.101562 -2.445312 7.34375 -3.164062 7.34375 -4.03125 C 7.34375 -4.90625 7.101562 -5.628906 6.625 -6.203125 C 6.113281 -6.804688 5.425781 -7.109375 4.5625 -7.109375 C 3.6875 -7.109375 2.992188 -6.804688 2.484375 -6.203125 C 2.003906 -5.628906 1.765625 -4.90625 1.765625 -4.03125 C 1.765625 -3.164062 2.003906 -2.445312 2.484375 -1.875 C 2.992188 -1.269531 3.6875 -0.96875 4.5625 -0.96875 Z M 4.5625 -0.96875 "/></g></g></g><g fill="#000000" fill-opacity="1"><g transform="translate(86.421265, 34.788466)"><g><path d="M 5.453125 -5.671875 L 5.453125 -2.4375 C 5.453125 -1.6875 5.222656 -1.082031 4.765625 -0.625 C 4.316406 -0.164062 3.738281 0.0625 3.03125 0.0625 C 2.320312 0.0625 1.742188 -0.164062 1.296875 -0.625 C 0.847656 -1.082031 0.625 -1.6875 0.625 -2.4375 L 0.625 -5.671875 L 1.265625 -5.671875 L 1.265625 -2.421875 C 1.265625 -1.804688 1.445312 -1.332031 1.8125 -1 C 2.125 -0.707031 2.53125 -0.5625 3.03125 -0.5625 C 3.53125 -0.5625 3.9375 -0.707031 4.25 -1 C 4.613281 -1.332031 4.796875 -1.804688 4.796875 -2.421875 L 4.796875 -5.671875 Z M 5.453125 -5.671875 "/></g></g></g><g fill="#000000" fill-opacity="1"><g transform="translate(92.492272, 34.788466)"><g><path d="M 1.203125 -3.625 C 1.484375 -4.101562 1.914062 -4.34375 2.5 -4.34375 C 2.78125 -4.34375 3.039062 -4.265625 3.28125 -4.109375 C 3.53125 -3.960938 3.722656 -3.753906 3.859375 -3.484375 C 4.054688 -3.847656 4.359375 -4.101562 4.765625 -4.25 C 4.929688 -4.3125 5.117188 -4.34375 5.328125 -4.34375 C 5.535156 -4.34375 5.734375 -4.300781 5.921875 -4.21875 C 6.117188 -4.132812 6.289062 -4.019531 6.4375 -3.875 C 6.757812 -3.53125 6.921875 -3.097656 6.921875 -2.578125 L 6.921875 0 L 6.28125 0 L 6.28125 -2.5625 C 6.28125 -2.914062 6.179688 -3.207031 5.984375 -3.4375 C 5.773438 -3.65625 5.519531 -3.765625 5.21875 -3.765625 C 4.882812 -3.765625 4.613281 -3.660156 4.40625 -3.453125 C 4.175781 -3.234375 4.0625 -2.9375 4.0625 -2.5625 L 4.0625 0 L 3.421875 0 L 3.421875 -2.5625 C 3.421875 -2.914062 3.316406 -3.207031 3.109375 -3.4375 C 2.910156 -3.65625 2.660156 -3.765625 2.359375 -3.765625 C 2.023438 -3.765625 1.753906 -3.660156 1.546875 -3.453125 C 1.316406 -3.234375 1.203125 -2.9375 1.203125 -2.5625 L 1.203125 0 L 0.5625 0 L 0.5625 -4.28125 L 1.203125 -4.28125 Z M 1.203125 -3.625 "/></g></g></g><g fill="#000000" fill-opacity="1"><g transform="translate(99.924766, 34.788466)"><g/></g></g><g fill="#000000" fill-opacity="1"><g transform="translate(101.748636, 34.788466)"><g><path d="M 1.203125 -3.59375 C 1.546875 -4.09375 2.054688 -4.34375 2.734375 -4.34375 C 3.347656 -4.34375 3.847656 -4.128906 4.234375 -3.703125 C 4.609375 -3.285156 4.796875 -2.765625 4.796875 -2.140625 C 4.796875 -1.515625 4.609375 -0.992188 4.234375 -0.578125 C 3.847656 -0.148438 3.332031 0.0625 2.6875 0.0625 C 2.039062 0.0625 1.546875 -0.1875 1.203125 -0.6875 L 1.203125 1.703125 L 0.5625 1.703125 L 0.5625 -4.28125 L 1.203125 -4.28125 Z M 2.640625 -3.765625 C 2.179688 -3.765625 1.816406 -3.601562 1.546875 -3.28125 C 1.296875 -2.976562 1.171875 -2.597656 1.171875 -2.140625 C 1.171875 -1.679688 1.296875 -1.300781 1.546875 -1 C 1.816406 -0.675781 2.179688 -0.515625 2.640625 -0.515625 C 3.097656 -0.515625 3.472656 -0.675781 3.765625 -1 C 4.023438 -1.300781 4.15625 -1.679688 4.15625 -2.140625 C 4.15625 -2.597656 4.023438 -2.976562 3.765625 -3.28125 C 3.472656 -3.601562 3.097656 -3.765625 2.640625 -3.765625 Z M 2.640625 -3.765625 "/></g></g></g><g fill="#000000" fill-opacity="1"><g transform="translate(106.834927, 34.788466)"><g><path d="M 2.8125 -4.34375 L 2.8125 -3.703125 L 2.734375 -3.703125 C 2.273438 -3.703125 1.898438 -3.519531 1.609375 -3.15625 C 1.335938 -2.800781 1.203125 -2.378906 1.203125 -1.890625 L 1.203125 0 L 0.5625 0 L 0.5625 -4.28125 L 1.203125 -4.28125 L 1.203125 -3.234375 C 1.335938 -3.671875 1.632812 -4 2.09375 -4.21875 C 2.28125 -4.300781 2.507812 -4.34375 2.78125 -4.34375 Z M 2.8125 -4.34375 "/></g></g></g><g fill="#000000" fill-opacity="1"><g transform="translate(109.789086, 34.788466)"><g><path d="M 2.421875 -4.34375 C 3.054688 -4.34375 3.570312 -4.128906 3.96875 -3.703125 C 4.34375 -3.296875 4.53125 -2.773438 4.53125 -2.140625 C 4.53125 -1.503906 4.34375 -0.984375 3.96875 -0.578125 C 3.570312 -0.148438 3.054688 0.0625 2.421875 0.0625 C 1.773438 0.0625 1.253906 -0.148438 0.859375 -0.578125 C 0.484375 -0.984375 0.296875 -1.503906 0.296875 -2.140625 C 0.296875 -2.773438 0.484375 -3.296875 0.859375 -3.703125 C 1.253906 -4.128906 1.773438 -4.34375 2.421875 -4.34375 Z M 2.421875 -0.515625 C 2.878906 -0.515625 3.242188 -0.675781 3.515625 -1 C 3.765625 -1.300781 3.890625 -1.679688 3.890625 -2.140625 C 3.890625 -2.597656 3.765625 -2.976562 3.515625 -3.28125 C 3.242188 -3.601562 2.878906 -3.765625 2.421875 -3.765625 C 1.953125 -3.765625 1.582031 -3.601562 1.3125 -3.28125 C 1.0625 -2.976562 0.9375 -2.597656 0.9375 -2.140625 C 0.9375 -1.679688 1.0625 -1.300781 1.3125 -1 C 1.582031 -0.675781 1.953125 -0.515625 2.421875 -0.515625 Z M 2.421875 -0.515625 "/></g></g></g><g fill="#000000" fill-opacity="1"><g transform="translate(114.618496, 34.788466)"><g><path d="M 3.890625 -0.6875 C 3.546875 -0.1875 3.035156 0.0625 2.359375 0.0625 C 1.742188 0.0625 1.242188 -0.148438 0.859375 -0.578125 C 0.484375 -0.992188 0.296875 -1.515625 0.296875 -2.140625 C 0.296875 -2.765625 0.484375 -3.285156 0.859375 -3.703125 C 1.242188 -4.128906 1.757812 -4.34375 2.40625 -4.34375 C 3.050781 -4.34375 3.546875 -4.09375 3.890625 -3.59375 L 3.890625 -6 L 4.53125 -6 L 4.53125 0 L 3.890625 0 Z M 2.453125 -0.515625 C 2.910156 -0.515625 3.273438 -0.675781 3.546875 -1 C 3.804688 -1.300781 3.9375 -1.679688 3.9375 -2.140625 C 3.9375 -2.597656 3.804688 -2.976562 3.546875 -3.28125 C 3.273438 -3.601562 2.910156 -3.765625 2.453125 -3.765625 C 1.992188 -3.765625 1.617188 -3.601562 1.328125 -3.28125 C 1.066406 -2.976562 0.9375 -2.597656 0.9375 -2.140625 C 0.9375 -1.679688 1.066406 -1.300781 1.328125 -1 C 1.617188 -0.675781 1.992188 -0.515625 2.453125 -0.515625 Z M 2.453125 -0.515625 "/></g></g></g><g fill="#000000" fill-opacity="1"><g transform="translate(119.713345, 34.788466)"><g><path d="M 3.640625 0 L 3.640625 -0.671875 C 3.492188 -0.460938 3.304688 -0.285156 3.078125 -0.140625 C 2.859375 -0.00390625 2.601562 0.0625 2.3125 0.0625 C 2.03125 0.0625 1.785156 0.0234375 1.578125 -0.046875 C 1.378906 -0.128906 1.203125 -0.25 1.046875 -0.40625 C 0.691406 -0.757812 0.515625 -1.222656 0.515625 -1.796875 L 0.515625 -4.28125 L 1.15625 -4.28125 L 1.15625 -1.8125 C 1.15625 -1.414062 1.265625 -1.097656 1.484375 -0.859375 C 1.710938 -0.628906 2.003906 -0.515625 2.359375 -0.515625 C 2.710938 -0.515625 3.015625 -0.632812 3.265625 -0.875 C 3.515625 -1.113281 3.640625 -1.425781 3.640625 -1.8125 L 3.640625 -4.28125 L 4.296875 -4.28125 L 4.296875 0 Z M 3.640625 0 "/></g></g></g><g fill="#000000" fill-opacity="1"><g transform="translate(124.559881, 34.788466)"><g><path d="M 1.015625 0 L 1.015625 -3.71875 L 0.140625 -3.71875 L 0.140625 -4.28125 L 1.015625 -4.28125 L 1.015625 -5.8125 L 1.65625 -5.8125 L 1.65625 -4.28125 L 2.640625 -4.28125 L 2.640625 -3.71875 L 1.65625 -3.71875 L 1.65625 0 Z M 1.015625 0 "/></g></g></g><g fill="#000000" fill-opacity="1"><g transform="translate(127.351351, 34.788466)"><g><path d="M 2.421875 -4.34375 C 3.054688 -4.34375 3.570312 -4.128906 3.96875 -3.703125 C 4.34375 -3.296875 4.53125 -2.773438 4.53125 -2.140625 C 4.53125 -1.503906 4.34375 -0.984375 3.96875 -0.578125 C 3.570312 -0.148438 3.054688 0.0625 2.421875 0.0625 C 1.773438 0.0625 1.253906 -0.148438 0.859375 -0.578125 C 0.484375 -0.984375 0.296875 -1.503906 0.296875 -2.140625 C 0.296875 -2.773438 0.484375 -3.296875 0.859375 -3.703125 C 1.253906 -4.128906 1.773438 -4.34375 2.421875 -4.34375 Z M 2.421875 -0.515625 C 2.878906 -0.515625 3.242188 -0.675781 3.515625 -1 C 3.765625 -1.300781 3.890625 -1.679688 3.890625 -2.140625 C 3.890625 -2.597656 3.765625 -2.976562 3.515625 -3.28125 C 3.242188 -3.601562 2.878906 -3.765625 2.421875 -3.765625 C 1.953125 -3.765625 1.582031 -3.601562 1.3125 -3.28125 C 1.0625 -2.976562 0.9375 -2.597656 0.9375 -2.140625 C 0.9375 -1.679688 1.0625 -1.300781 1.3125 -1 C 1.582031 -0.675781 1.953125 -0.515625 2.421875 -0.515625 Z M 2.421875 -0.515625 "/></g></g></g><g fill="#000000" fill-opacity="1"><g transform="translate(132.18076, 34.788466)"><g/></g></g><g fill="#000000" fill-opacity="1"><g transform="translate(134.00463, 34.788466)"><g><path d="M 3.890625 -0.6875 C 3.546875 -0.1875 3.035156 0.0625 2.359375 0.0625 C 1.742188 0.0625 1.242188 -0.148438 0.859375 -0.578125 C 0.484375 -0.992188 0.296875 -1.515625 0.296875 -2.140625 C 0.296875 -2.765625 0.484375 -3.285156 0.859375 -3.703125 C 1.242188 -4.128906 1.757812 -4.34375 2.40625 -4.34375 C 3.050781 -4.34375 3.546875 -4.09375 3.890625 -3.59375 L 3.890625 -6 L 4.53125 -6 L 4.53125 0 L 3.890625 0 Z M 2.453125 -0.515625 C 2.910156 -0.515625 3.273438 -0.675781 3.546875 -1 C 3.804688 -1.300781 3.9375 -1.679688 3.9375 -2.140625 C 3.9375 -2.597656 3.804688 -2.976562 3.546875 -3.28125 C 3.273438 -3.601562 2.910156 -3.765625 2.453125 -3.765625 C 1.992188 -3.765625 1.617188 -3.601562 1.328125 -3.28125 C 1.066406 -2.976562 0.9375 -2.597656 0.9375 -2.140625 C 0.9375 -1.679688 1.066406 -1.300781 1.328125 -1 C 1.617188 -0.675781 1.992188 -0.515625 2.453125 -0.515625 Z M 2.453125 -0.515625 "/></g></g></g><g fill="#000000" fill-opacity="1"><g transform="translate(139.099479, 34.788466)"><g><path d="M 3.890625 -0.6875 C 3.546875 -0.1875 3.035156 0.0625 2.359375 0.0625 C 1.742188 0.0625 1.242188 -0.148438 0.859375 -0.578125 C 0.484375 -0.992188 0.296875 -1.515625 0.296875 -2.140625 C 0.296875 -2.765625 0.484375 -3.285156 0.859375 -3.703125 C 1.242188 -4.128906 1.757812 -4.34375 2.40625 -4.34375 C 3.050781 -4.34375 3.546875 -4.09375 3.890625 -3.59375 L 3.890625 -4.28125 L 4.53125 -4.28125 L 4.53125 0 L 3.890625 0 Z M 2.453125 -0.515625 C 2.910156 -0.515625 3.273438 -0.675781 3.546875 -1 C 3.804688 -1.300781 3.9375 -1.679688 3.9375 -2.140625 C 3.9375 -2.597656 3.804688 -2.976562 3.546875 -3.28125 C 3.273438 -3.601562 2.910156 -3.765625 2.453125 -3.765625 C 1.992188 -3.765625 1.617188 -3.601562 1.328125 -3.28125 C 1.066406 -2.976562 0.9375 -2.597656 0.9375 -2.140625 C 0.9375 -1.679688 1.066406 -1.300781 1.328125 -1 C 1.617188 -0.675781 1.992188 -0.515625 2.453125 -0.515625 Z M 2.453125 -0.515625 "/></g></g></g></svg>